<?xml version='1.0' encoding='UTF-8'?>
<!DOCTYPE svg PUBLIC "-//W3C//DTD SVG 1.1//EN" "http://www.w3.org/Graphics/SVG/1.1/DTD/svg11.dtd">
<!-- Creator: CorelDRAW --><svg xmlns="http://www.w3.org/2000/svg" xmlns:xlink="http://www.w3.org/1999/xlink" xmlns:xodm="http://www.corel.com/coreldraw/odm/2003" xml:space="preserve" width="364.2mm" height="240.2mm" version="1.1" style="shape-rendering:geometricPrecision; text-rendering:geometricPrecision; image-rendering:optimizeQuality; fill-rule:evenodd; clip-rule:evenodd" viewBox="0 0 184.919 121.959">
 <defs>
  <style type="text/css">
   
    .str0 {stroke:#332C2B;stroke-width:0.102;stroke-miterlimit:22.9256}
    .fil0 {fill:none}
    .fil2 {fill:#A6D4AE}
    .fil7 {fill:#A2CEA9}
    .fil6 {fill:#FEFEFE;fill-rule:nonzero}
    .fil5 {fill:#E3EBF6;fill-rule:nonzero}
    .fil4 {fill:#C6D5EB;fill-rule:nonzero}
    .fil1 {fill:#43518F;fill-rule:nonzero}
    .fil3 {fill:#15499A;fill-rule:nonzero}
   
  </style>
 </defs>
 <g id="图层_x0020_1">
  <metadata id="CorelCorpID_0Corel-Layer"/>
  <polygon class="fil0 str0" points="0.051,0.051 184.868,0.051 184.868,121.908 0.051,121.908 "/>
  <g id="_2705088732480">
   <path class="fil1" d="M36.271 14.511l2.1 4.926 -1.638 0 -2.1 -4.926 1.638 0zm-4.027 -1.489l-3.853 0 0 -1.569 10.614 0 0 1.569 -5.169 0 0 8.492 -1.592 0 0 -8.492z"/>
   <path class="fil1" d="M48.362 17.28l0 -0.45 -1.384 0 0 0.45 1.384 0zm-2.792 0l0 -0.45 -1.407 0 0 0.45 1.407 0zm-3.382 1.12l3.369 0 0 -0.3 -2.827 0 0 -2.088 2.827 0 0 -0.336c-1.027,0.012 -2.052,0.012 -3.08,-0.011l0 -1.063c2.527,0 5.065,-0.057 7.568,-0.183l0 1.107c-1.004,0.057 -2.019,0.103 -3.035,0.126l0 0.359 2.781 0 0 2.088 -2.781 0 0 0.3 3.346 0 0 3.115 -1.431 0 0 -1.985 -1.949 0 0 0.576 0.565 0 0.865 -0.322 0 1.372 -4.281 0 0 -1.05 1.42 0 0 -0.576 -1.928 0 0 1.985 -1.431 0 0 -3.115zm6.058 -5.344l0 -0.634 -6.276 0 0 0.634 6.276 0zm1.523 -1.821l0 2.987 -7.799 0 0 2.1c0,1.869 -0.172,3.495 -0.611,5.192l-1.546 0c0.554,-1.731 0.714,-3.3 0.714,-5.192l0 -5.088 9.242 0z"/>
   <path class="fil1" d="M60.14 16.921l0 -1.454 -2.63 0 0 1.454 2.63 0zm-4.13 -5.583l5.953 0 0 1.477 -4.453 0 0 1.223 4.084 0 0 4.316 -4.084 0 0 1.477 4.453 0 0 1.477 -5.953 0 0 -9.969zm-4.43 3.911l1.292 0 0 -1.88 -1.292 0 0.346 -2.239 1.5 0 -0.116 0.762 2.122 0 0 1.477 -1.061 0 0 1.88 1.223 0 0 1.477 -1.246 0c0,0.288 -0.012,0.565 -0.036,0.842l1.294 0.945 0 1.754 -1.477 -1.084c-0.151,0.785 -0.359,1.546 -0.636,2.331l-1.811 0c0.832,-1.559 1.143,-3.105 1.166,-4.789l-1.269 0 0 -1.477z"/>
   <path class="fil1" d="M67.223 18.261l2.619 0 0 -1.258 -2.378 0 0 -1.466 0.267 0 0.714 -2.145 -1.025 0 0 -1.477 1.51 0 0.3 -0.924 1.534 0 -0.299 0.924 2.918 0 0 1.477 -3.403 0 -0.716 2.145 0.657 0 0 -1.487 1.397 0 0 1.487 1.846 0 0 1.466 -1.846 0 0 1.258 2.262 0 0 1.477 -2.262 0 0 1.777 -1.477 0 0 -1.777 -2.619 0 0 -1.477zm-1.546 -0.267c0,-0.796 -0.242,-1.523 -0.727,-2.307 0.346,-0.993 0.578,-1.926 0.693,-2.966l-0.924 0 0 8.793 -1.464 0 0 -10.269 3.899 0c0,1.685 -0.219,2.989 -0.681,4.419 0.393,0.727 0.611,1.51 0.611,2.33 0,0.796 -0.208,1.582 -0.576,2.296l-1.558 0c0.485,-0.784 0.727,-1.51 0.727,-2.296z"/>
   <path class="fil1" d="M29.76 28.223c-0.176,0 -0.345,-0.012 -0.503,-0.035 -0.158,-0.023 -0.284,-0.048 -0.377,-0.073l0 -0.581c0.046,0.018 0.103,0.034 0.171,0.048 0.066,0.016 0.137,0.027 0.213,0.037 0.075,0.011 0.153,0.02 0.233,0.027 0.08,0.007 0.16,0.011 0.238,0.011 0.098,0 0.181,-0.005 0.251,-0.018 0.067,-0.011 0.123,-0.032 0.165,-0.06 0.043,-0.028 0.071,-0.067 0.089,-0.114 0.018,-0.046 0.027,-0.103 0.027,-0.171 0,-0.057 -0.007,-0.107 -0.021,-0.147 -0.016,-0.041 -0.043,-0.076 -0.082,-0.108 -0.039,-0.032 -0.094,-0.062 -0.165,-0.087 -0.071,-0.027 -0.165,-0.055 -0.281,-0.084 -0.163,-0.037 -0.297,-0.078 -0.403,-0.124 -0.107,-0.044 -0.192,-0.1 -0.254,-0.165 -0.064,-0.066 -0.11,-0.144 -0.135,-0.238 -0.027,-0.092 -0.041,-0.208 -0.041,-0.343 0,-0.32 0.098,-0.547 0.291,-0.682 0.192,-0.135 0.466,-0.203 0.816,-0.203 0.172,0 0.323,0.011 0.457,0.032 0.132,0.021 0.238,0.048 0.32,0.076l0 0.546c-0.037,-0.012 -0.085,-0.025 -0.144,-0.037 -0.059,-0.014 -0.123,-0.027 -0.192,-0.037 -0.069,-0.012 -0.14,-0.02 -0.211,-0.027 -0.071,-0.005 -0.139,-0.009 -0.203,-0.009 -0.171,0 -0.295,0.023 -0.373,0.066 -0.076,0.044 -0.116,0.13 -0.116,0.258 0,0.05 0.007,0.091 0.018,0.126 0.012,0.036 0.035,0.066 0.073,0.094 0.036,0.027 0.089,0.053 0.156,0.076 0.067,0.023 0.158,0.048 0.268,0.073 0.179,0.044 0.327,0.092 0.442,0.146 0.114,0.055 0.204,0.119 0.27,0.192 0.066,0.075 0.108,0.162 0.133,0.261 0.023,0.101 0.034,0.222 0.034,0.364 0,0.297 -0.091,0.522 -0.27,0.679 -0.179,0.155 -0.478,0.233 -0.894,0.233z"/>
   <path class="fil1" d="M32.745 28.223c-0.203,0 -0.384,-0.018 -0.54,-0.053 -0.156,-0.034 -0.29,-0.092 -0.396,-0.171 -0.107,-0.08 -0.188,-0.188 -0.244,-0.322 -0.055,-0.133 -0.084,-0.3 -0.084,-0.501l0 -2.022 0.663 0 0 1.949c0,0.089 0.009,0.169 0.027,0.238 0.016,0.071 0.048,0.128 0.094,0.176 0.048,0.046 0.11,0.08 0.188,0.103 0.078,0.023 0.178,0.036 0.297,0.036 0.124,0 0.226,-0.012 0.304,-0.039 0.08,-0.027 0.14,-0.064 0.187,-0.112 0.044,-0.048 0.076,-0.105 0.092,-0.174 0.018,-0.068 0.027,-0.144 0.027,-0.227l0 -1.949 0.658 0 0 2.022c0,0.187 -0.028,0.345 -0.084,0.478 -0.057,0.132 -0.14,0.24 -0.249,0.323 -0.11,0.085 -0.242,0.147 -0.4,0.187 -0.156,0.039 -0.336,0.059 -0.54,0.059z"/>
   <path class="fil1" d="M35.643 27.647c0.116,0 0.213,-0.005 0.29,-0.018 0.078,-0.011 0.139,-0.03 0.185,-0.059 0.048,-0.027 0.08,-0.066 0.1,-0.115 0.018,-0.05 0.028,-0.114 0.028,-0.192 0,-0.069 -0.011,-0.128 -0.028,-0.178 -0.02,-0.05 -0.052,-0.091 -0.096,-0.121 -0.046,-0.03 -0.107,-0.052 -0.187,-0.064 -0.078,-0.014 -0.176,-0.021 -0.291,-0.021l-0.306 0 0 0.768 0.306 0zm-0.082 -1.246c0.107,0 0.199,-0.005 0.275,-0.016 0.078,-0.011 0.14,-0.028 0.19,-0.055 0.05,-0.025 0.085,-0.062 0.108,-0.108 0.023,-0.046 0.036,-0.107 0.036,-0.183 0,-0.078 -0.012,-0.14 -0.036,-0.187 -0.023,-0.046 -0.059,-0.084 -0.107,-0.11 -0.048,-0.025 -0.11,-0.043 -0.188,-0.05 -0.08,-0.007 -0.172,-0.011 -0.279,-0.011l-0.224 0 0 0.72 0.224 0zm-0.885 -1.247l1.02 0c0.22,0 0.403,0.018 0.549,0.052 0.144,0.032 0.259,0.084 0.346,0.151 0.085,0.069 0.146,0.155 0.179,0.256 0.036,0.101 0.053,0.22 0.053,0.357 0,0.156 -0.032,0.288 -0.096,0.393 -0.064,0.103 -0.179,0.179 -0.345,0.226l0 0.018c0.355,0.091 0.531,0.323 0.531,0.702 0,0.137 -0.018,0.259 -0.052,0.368 -0.036,0.108 -0.096,0.201 -0.181,0.275 -0.085,0.073 -0.201,0.13 -0.346,0.169 -0.146,0.039 -0.329,0.059 -0.549,0.059l-1.111 0 0 -3.024z"/>
   <path class="fil1" d="M38.773 27.668c0.139,0 0.254,-0.016 0.341,-0.052 0.089,-0.035 0.158,-0.092 0.208,-0.171 0.05,-0.078 0.084,-0.181 0.103,-0.309 0.018,-0.128 0.028,-0.284 0.028,-0.471 0,-0.183 -0.011,-0.339 -0.028,-0.467 -0.02,-0.13 -0.053,-0.235 -0.103,-0.316 -0.05,-0.082 -0.119,-0.14 -0.208,-0.176 -0.087,-0.037 -0.203,-0.055 -0.341,-0.055 -0.14,0 -0.252,0.018 -0.339,0.055 -0.087,0.036 -0.156,0.094 -0.206,0.176 -0.048,0.082 -0.084,0.187 -0.101,0.316 -0.02,0.128 -0.028,0.284 -0.028,0.467 0,0.187 0.009,0.343 0.028,0.471 0.018,0.128 0.053,0.231 0.101,0.309 0.05,0.078 0.119,0.135 0.206,0.171 0.087,0.036 0.199,0.052 0.339,0.052zm0 0.554c-0.219,0 -0.412,-0.023 -0.585,-0.069 -0.171,-0.048 -0.315,-0.13 -0.43,-0.247 -0.117,-0.117 -0.206,-0.277 -0.267,-0.478 -0.06,-0.199 -0.092,-0.453 -0.092,-0.762 0,-0.307 0.032,-0.562 0.092,-0.762 0.06,-0.201 0.149,-0.359 0.267,-0.476 0.116,-0.119 0.259,-0.201 0.43,-0.247 0.172,-0.046 0.366,-0.069 0.585,-0.069 0.22,0 0.418,0.023 0.588,0.069 0.171,0.046 0.314,0.128 0.432,0.247 0.116,0.117 0.204,0.275 0.263,0.476 0.06,0.201 0.089,0.455 0.089,0.762 0,0.309 -0.028,0.563 -0.089,0.762 -0.059,0.201 -0.147,0.361 -0.263,0.478 -0.117,0.117 -0.261,0.199 -0.432,0.247 -0.171,0.046 -0.368,0.069 -0.588,0.069z"/>
   <path class="fil1" d="M41.666 26.584c0.112,0 0.206,-0.007 0.284,-0.02 0.078,-0.014 0.142,-0.037 0.188,-0.073 0.048,-0.034 0.084,-0.082 0.105,-0.144 0.023,-0.06 0.034,-0.139 0.034,-0.235 0,-0.091 -0.011,-0.163 -0.034,-0.22 -0.021,-0.057 -0.057,-0.101 -0.105,-0.133 -0.046,-0.032 -0.11,-0.053 -0.188,-0.066 -0.078,-0.011 -0.172,-0.016 -0.284,-0.016l-0.265 0 0 0.906 0.265 0zm0.773 1.594l-0.711 -1.102 -0.327 0 0 1.102 -0.663 0 0 -3.024 1.029 0c0.203,0 0.378,0.018 0.524,0.053 0.147,0.034 0.268,0.089 0.364,0.165 0.096,0.075 0.167,0.174 0.211,0.297 0.044,0.121 0.068,0.27 0.068,0.444 0,0.252 -0.046,0.45 -0.137,0.592 -0.092,0.144 -0.235,0.243 -0.43,0.302l0.849 1.171 -0.778 0z"/>
   <path class="fil1" d="M44.573 27.611c0.14,0 0.261,-0.014 0.364,-0.043 0.103,-0.028 0.188,-0.08 0.258,-0.153 0.068,-0.073 0.119,-0.171 0.151,-0.291 0.034,-0.123 0.052,-0.275 0.052,-0.458 0,-0.194 -0.018,-0.354 -0.053,-0.476 -0.034,-0.124 -0.085,-0.22 -0.155,-0.293 -0.067,-0.071 -0.155,-0.119 -0.258,-0.146 -0.103,-0.025 -0.222,-0.039 -0.359,-0.039l-0.339 0 0 1.9 0.339 0zm0.035 -2.458c0.22,0 0.421,0.02 0.602,0.059 0.183,0.039 0.338,0.116 0.467,0.226 0.13,0.11 0.229,0.263 0.299,0.462 0.069,0.197 0.105,0.453 0.105,0.766 0,0.293 -0.036,0.537 -0.105,0.73 -0.069,0.194 -0.169,0.348 -0.299,0.464 -0.13,0.117 -0.284,0.199 -0.467,0.247 -0.181,0.048 -0.382,0.071 -0.602,0.071l-1.038 0 0 -3.024 1.038 0z"/>
   <polygon class="fil1" points="46.679,25.154 47.34,25.154 47.34,28.178 46.679,28.178 "/>
   <polygon class="fil1" points="48.012,25.154 49.023,25.154 49.973,27.316 49.998,27.316 49.998,25.154 50.649,25.154 50.649,28.178 49.737,28.178 48.692,25.877 48.666,25.877 48.666,28.178 48.012,28.178 "/>
   <path class="fil1" d="M52.984 26.879l-0.391 -1.146 -0.053 0 -0.4 1.146 0.844 0zm0.192 0.549l-1.228 0 -0.263 0.75 -0.688 0 1.128 -3.024 0.888 0 1.121 3.024 -0.702 0 -0.258 -0.75z"/>
   <polygon class="fil1" points="56.118,25.733 55.324,25.733 55.324,28.178 54.667,28.178 54.667,25.733 53.874,25.733 53.874,25.154 56.118,25.154 "/>
   <polygon class="fil1" points="58.441,27.604 58.441,28.178 56.532,28.178 56.532,25.154 58.379,25.154 58.379,25.73 57.193,25.73 57.193,26.353 58.292,26.353 58.292,26.906 57.193,26.906 57.193,27.604 "/>
   <polygon class="fil1" points="28.976,29.419 30.053,29.419 30.554,31.123 30.579,31.123 31.103,29.419 32.148,29.419 32.148,32.443 31.494,32.443 31.494,30.064 31.469,30.064 30.885,31.873 30.222,31.873 29.648,30.064 29.621,30.064 29.621,32.443 28.976,32.443 "/>
   <path class="fil1" d="M34.485 31.146l-0.393 -1.146 -0.052 0 -0.402 1.146 0.846 0zm0.192 0.549l-1.23 0 -0.261 0.748 -0.688 0 1.128 -3.024 0.889 0 1.12 3.024 -0.702 0 -0.256 -0.748z"/>
   <polygon class="fil1" points="37.618,30 36.825,30 36.825,32.443 36.166,32.443 36.166,30 35.373,30 35.373,29.419 37.618,29.419 "/>
   <path class="fil1" d="M38.959 30.849c0.112,0 0.206,-0.007 0.284,-0.02 0.078,-0.012 0.142,-0.037 0.19,-0.073 0.048,-0.034 0.082,-0.082 0.103,-0.144 0.023,-0.06 0.034,-0.139 0.034,-0.235 0,-0.091 -0.011,-0.163 -0.034,-0.22 -0.021,-0.057 -0.055,-0.101 -0.103,-0.133 -0.048,-0.032 -0.112,-0.053 -0.19,-0.064 -0.078,-0.012 -0.172,-0.018 -0.284,-0.018l-0.265 0 0 0.906 0.265 0zm0.773 1.594l-0.711 -1.102 -0.327 0 0 1.102 -0.663 0 0 -3.024 1.029 0c0.203,0 0.378,0.018 0.524,0.053 0.147,0.036 0.268,0.091 0.364,0.165 0.096,0.076 0.167,0.174 0.211,0.297 0.044,0.123 0.068,0.27 0.068,0.444 0,0.252 -0.046,0.45 -0.137,0.594 -0.092,0.142 -0.235,0.242 -0.43,0.3l0.851 1.171 -0.78 0z"/>
   <polygon class="fil1" points="40.864,29.419 41.527,29.419 41.527,32.443 40.864,32.443 "/>
   <polygon class="fil1" points="42.878,30.906 41.993,29.419 42.764,29.419 43.358,30.501 43.384,30.501 43.99,29.419 44.753,29.419 43.85,30.879 44.783,32.443 43.994,32.443 43.375,31.311 43.349,31.311 42.695,32.443 41.929,32.443 "/>
  </g>
  <g id="_2705088674736">
   <rect class="fil2" x="76.716" y="99.813" width="17.771" height="7.108"/>
   <path class="fil3" d="M84.81 117.835c0.126,-0.557 0.26,-1.124 0.404,-1.702 2.474,-9.973 8.235,-25.363 21.63,-42.048l-1.983 -1.592c-13.727,17.098 -19.62,32.909 -22.147,43.16 -0.184,0.746 -0.353,1.474 -0.509,2.182l2.606 0z"/>
   <path class="fil3" d="M114.44 62.524l-30.371 -18.554c0.293,-0.654 0.458,-1.379 0.458,-2.143 0,-2.888 -2.34,-5.23 -5.228,-5.23 -2.888,0 -5.228,2.342 -5.228,5.23 0,2.886 2.34,5.228 5.228,5.228 2.044,0 3.812,-1.173 4.672,-2.882l30.352 18.543 0.117 -0.192z"/>
   <path class="fil3" d="M144.115 36.199c-2.623,0 -4.75,2.125 -4.75,4.748 0,1.134 0.398,2.173 1.061,2.991l-26.11 18.591 0.13 0.181 26.126 -18.602c0.869,0.976 2.134,1.589 3.543,1.589 2.623,0 4.75,-2.125 4.75,-4.75 0,-2.623 -2.127,-4.748 -4.75,-4.748z"/>
   <path class="fil3" d="M132.861 90.796c-0.689,0 -1.336,0.171 -1.907,0.469l-16.475 -28.702 -0.195 0.112 16.475 28.699c-1.203,0.718 -2.01,2.031 -2.01,3.535 0,2.269 1.841,4.11 4.112,4.11 2.269,0 4.11,-1.841 4.11,-4.11 0,-2.271 -1.841,-4.112 -4.11,-4.112z"/>
   <path class="fil4" d="M152.257 60.704c-2.225,0 -4.036,1.768 -4.109,3.975l-33.76 -2.171 -0.014 0.224 33.774 2.171c0.048,2.23 1.868,4.021 4.109,4.021 2.269,0 4.11,-1.839 4.11,-4.11 0,-2.269 -1.841,-4.11 -4.11,-4.11z"/>
   <path class="fil5" d="M143.237 85.449c-1.168,0 -2.22,0.487 -2.968,1.267l-25.811 -24.178 -0.153 0.163 25.813 24.182c-0.618,0.72 -0.992,1.654 -0.992,2.676 0,2.271 1.839,4.11 4.11,4.11 2.271,0 4.11,-1.839 4.11,-4.11 0,-2.271 -1.839,-4.11 -4.11,-4.11z"/>
   <path class="fil5" d="M114.406 62.51l-31.372 -6.975c0.089,-0.323 0.137,-0.665 0.137,-1.016 0,-2.14 -1.734,-3.872 -3.872,-3.872 -2.138,0 -3.872,1.733 -3.872,3.872 0,2.138 1.734,3.87 3.872,3.87 1.708,0 3.154,-1.105 3.67,-2.637l31.387 6.978 0.05 -0.22z"/>
   <path class="fil5" d="M114.47 62.552l-20.526 -26.973c0.878,-0.709 1.439,-1.795 1.439,-3.012 0,-2.138 -1.733,-3.872 -3.87,-3.872 -2.14,0 -3.872,1.734 -3.872,3.872 0,2.138 1.733,3.872 3.872,3.872 0.841,0 1.617,-0.27 2.251,-0.725l20.528 26.973 0.178 -0.135z"/>
   <path class="fil5" d="M133.001 32.128c-2.138,0 -3.872,1.733 -3.872,3.872 0,1.322 0.665,2.49 1.678,3.188l-16.517 23.366 0.183 0.13 16.523 -23.373c0.585,0.355 1.272,0.56 2.006,0.56 2.138,0 3.87,-1.733 3.87,-3.87 0,-2.14 -1.733,-3.872 -3.87,-3.872z"/>
   <path class="fil4" d="M117.735 33.164c-1.877,0 -3.398,1.523 -3.398,3.399 0,1.701 1.251,3.11 2.882,3.359l-2.95 22.684 0.222 0.028 2.95 -22.687c0.098,0.009 0.195,0.014 0.293,0.014 1.877,0 3.399,-1.521 3.399,-3.398 0,-1.877 -1.523,-3.399 -3.399,-3.399z"/>
   <path class="fil4" d="M148.083 49.994c-1.877,0 -3.399,1.521 -3.399,3.398 0,0.311 0.043,0.611 0.121,0.896l-30.453 8.224 0.059 0.217 30.46 -8.226c0.46,1.331 1.724,2.289 3.213,2.289 1.877,0 3.398,-1.523 3.398,-3.399 0,-1.877 -1.521,-3.398 -3.398,-3.398z"/>
   <path class="fil3" d="M131.658 81.22c-0.688,0 -1.329,0.206 -1.864,0.558l-15.325 -19.227 -0.176 0.139 15.318 19.218c-0.821,0.62 -1.351,1.603 -1.351,2.71 0,1.877 1.521,3.399 3.398,3.399 1.878,0 3.399,-1.523 3.399,-3.399 0,-1.877 -1.521,-3.398 -3.399,-3.398z"/>
   <path class="fil3" d="M139.7 65.655c-1.445,0 -2.655,0.997 -2.987,2.342l-22.305 -5.486 -0.053 0.217 22.312 5.487c-0.028,0.169 -0.046,0.343 -0.046,0.519 0,1.702 1.379,3.081 3.08,3.081 1.702,0 3.081,-1.379 3.081,-3.081 0,-1.701 -1.379,-3.08 -3.081,-3.08z"/>
   <path class="fil5" d="M144.095 56.8c-1.702,0 -3.081,1.379 -3.081,3.081 0,0.124 0.011,0.249 0.025,0.37l-26.666 2.257 0.018 0.224 26.682 -2.259c0.277,1.418 1.525,2.488 3.023,2.488 1.701,0 3.08,-1.379 3.08,-3.08 0,-1.702 -1.379,-3.081 -3.08,-3.081z"/>
   <path class="fil4" d="M133.01 41.592c-1.701,0 -3.08,1.379 -3.08,3.081 0,0.8 0.307,1.526 0.807,2.074l-16.434 15.791 0.156 0.162 16.434 -15.792c0.553,0.524 1.295,0.846 2.116,0.846 1.701,0 3.081,-1.379 3.081,-3.08 0,-1.702 -1.381,-3.081 -3.081,-3.081z"/>
   <path class="fil3" d="M114.492 62.597l-6.191 -29.241c1.169,-0.341 2.024,-1.418 2.024,-2.696 0,-1.553 -1.258,-2.811 -2.809,-2.811 -1.553,0 -2.811,1.258 -2.811,2.811 0,1.551 1.258,2.809 2.811,2.809 0.194,0 0.386,-0.02 0.569,-0.059l6.188 29.232 0.22 -0.046z"/>
   <path class="fil3" d="M114.479 62.565l-11.535 -20.315c0.787,-0.499 1.311,-1.375 1.311,-2.376 0,-1.551 -1.258,-2.809 -2.809,-2.809 -1.551,0 -2.809,1.258 -2.809,2.809 0,1.553 1.258,2.811 2.809,2.811 0.471,0 0.913,-0.117 1.304,-0.323l11.533 20.313 0.195 -0.11z"/>
   <path class="fil3" d="M114.424 62.515l-19.172 -7.764c0.14,-0.334 0.219,-0.702 0.219,-1.089 0,-1.551 -1.258,-2.809 -2.811,-2.809 -1.551,0 -2.809,1.258 -2.809,2.809 0,1.553 1.258,2.811 2.809,2.811 1.086,0 2.028,-0.617 2.495,-1.519l19.185 7.769 0.085 -0.208z"/>
   <path class="fil3" d="M114.385 62.508l-26.158 -1.002c0.005,-0.067 0.011,-0.135 0.011,-0.206 0,-1.551 -1.258,-2.809 -2.809,-2.809 -1.553,0 -2.811,1.258 -2.811,2.809 0,1.553 1.258,2.811 2.811,2.811 1.406,0 2.566,-1.032 2.774,-2.381l26.174 1.002 0.009 -0.224z"/>
   <path class="fil4" d="M114.415 62.726l-0.067 -0.213 -21.696 6.921c-0.341,-1.169 -1.418,-2.022 -2.696,-2.022 -1.551,0 -2.809,1.258 -2.809,2.809 0,1.551 1.258,2.809 2.809,2.809 1.551,0 2.809,-1.258 2.809,-2.809 0,-0.195 -0.02,-0.386 -0.057,-0.57l21.706 -6.925z"/>
   <path class="fil3" d="M108.395 86.407l6.095 -23.759 -0.217 -0.057 -6.093 23.755c-0.21,-0.048 -0.427,-0.078 -0.65,-0.078 -1.551,0 -2.809,1.258 -2.809,2.811 0,1.551 1.258,2.809 2.809,2.809 1.551,0 2.809,-1.258 2.809,-2.809 0,-1.251 -0.816,-2.308 -1.944,-2.673z"/>
   <path class="fil4" d="M123.519 83.491c-0.339,0 -0.663,0.064 -0.963,0.174l-8.069 -21.086 -0.21 0.08 8.071 21.09c-0.967,0.444 -1.638,1.42 -1.638,2.552 0,1.553 1.258,2.811 2.809,2.811 1.551,0 2.809,-1.258 2.809,-2.811 0,-1.551 -1.258,-2.809 -2.809,-2.809z"/>
   <path class="fil3" d="M134.131 51.048c-1.553,0 -2.811,1.258 -2.811,2.811 0,0.419 0.096,0.817 0.261,1.176l-17.244 7.481 0.089 0.206 17.257 -7.487c0.482,0.855 1.397,1.432 2.449,1.432 1.551,0 2.809,-1.258 2.809,-2.809 0,-1.553 -1.258,-2.811 -2.809,-2.811z"/>
   <path class="fil5" d="M124.127 39.355c-1.551,0 -2.809,1.258 -2.809,2.811 0,1.166 0.711,2.166 1.722,2.591l-8.759 17.813 0.201 0.099 8.771 -17.834c0.275,0.091 0.569,0.14 0.874,0.14 1.553,0 2.811,-1.258 2.811,-2.809 0,-1.553 -1.258,-2.811 -2.811,-2.811z"/>
   <path class="fil5" d="M116.123 87.921c-0.034,0 -0.066,0.002 -0.099,0.002l-1.53 -25.31 -0.224 0.014 1.53 25.308c-1.807,0.165 -3.224,1.683 -3.224,3.533 0,1.958 1.589,3.547 3.547,3.547 1.96,0 3.547,-1.589 3.547,-3.547 0,-1.96 -1.587,-3.547 -3.547,-3.547z"/>
   <path class="fil5" d="M114.458 62.701l-0.155 -0.163 -24.557 23.357c-0.645,-0.668 -1.55,-1.084 -2.55,-1.084 -1.96,0 -3.547,1.589 -3.547,3.547 0,1.958 1.587,3.547 3.547,3.547 1.958,0 3.545,-1.589 3.545,-3.547 0,-0.876 -0.318,-1.678 -0.844,-2.298l24.56 -23.359z"/>
   <path class="fil5" d="M114.449 62.709l-0.137 -0.178 -19.263 14.89c-0.62,-0.887 -1.646,-1.466 -2.809,-1.466 -1.893,0 -3.426,1.535 -3.426,3.428 0,1.893 1.534,3.426 3.426,3.426 1.893,0 3.428,-1.534 3.428,-3.426 0,-0.65 -0.181,-1.256 -0.496,-1.775l19.277 -14.899z"/>
   <path class="fil4" d="M139.633 75.023c-1.324,0 -2.491,0.663 -3.19,1.676l-22.001 -14.173 -0.121 0.188 21.999 14.174c-0.355,0.585 -0.56,1.272 -0.56,2.006 0,2.138 1.734,3.872 3.872,3.872 2.138,0 3.87,-1.734 3.87,-3.872 0,-2.138 -1.733,-3.87 -3.87,-3.87z"/>
   <path class="fil4" d="M114.394 62.732l-0.025 -0.224 -34.252 3.979c-0.203,-1.949 -1.848,-3.469 -3.851,-3.469 -2.138,0 -3.87,1.734 -3.87,3.872 0,2.138 1.733,3.872 3.87,3.872 2.138,0 3.872,-1.734 3.872,-3.872 0,-0.06 -0.002,-0.121 -0.005,-0.179l34.261 -3.979z"/>
   <path class="fil3" d="M114.429 62.721l-0.096 -0.203 -31.494 14.689c-0.769,-1.928 -2.653,-3.293 -4.857,-3.293 -2.888,0 -5.228,2.34 -5.228,5.228 0,2.888 2.34,5.228 5.228,5.228 2.888,0 5.228,-2.34 5.228,-5.228 0,-0.604 -0.103,-1.183 -0.291,-1.724l31.51 -14.698z"/>
   <path class="fil4" d="M102.175 90.693l12.309 -28.029 -0.206 -0.089 -12.297 28c-0.768,-0.442 -1.656,-0.697 -2.607,-0.697 -2.888,0 -5.228,2.34 -5.228,5.228 0,2.888 2.34,5.228 5.228,5.228 2.888,0 5.228,-2.34 5.228,-5.228 0,-1.857 -0.968,-3.487 -2.427,-4.414z"/>
   <path class="fil3" d="M110.904 98.768l3.59 -36.138 -0.224 -0.021 -3.586 36.104c-0.377,-0.087 -0.768,-0.133 -1.171,-0.133 -2.888,0 -5.228,2.34 -5.228,5.228 0,2.888 2.34,5.228 5.228,5.228 2.888,0 5.228,-2.34 5.228,-5.228 0,-2.406 -1.624,-4.43 -3.837,-5.04z"/>
   <path class="fil4" d="M122.822 95.756c-0.403,0 -0.798,0.046 -1.176,0.133l-7.154 -33.292 -0.22 0.046 7.158 33.301c-2.211,0.611 -3.835,2.635 -3.835,5.04 0,2.888 2.342,5.228 5.228,5.228 2.888,0 5.23,-2.34 5.23,-5.228 0,-2.888 -2.342,-5.228 -5.23,-5.228z"/>
   <path class="fil3" d="M117.813 23.547c0,-2.888 -2.34,-5.228 -5.228,-5.228 -2.888,0 -5.228,2.34 -5.228,5.228 0,2.888 2.34,5.228 5.228,5.228 0.172,0 0.345,-0.009 0.512,-0.025l1.173 33.245 0.224 -0.009 -1.173 -33.262c2.539,-0.359 4.492,-2.539 4.492,-5.176z"/>
   <path class="fil3" d="M124.478 23.508c-2.888,0 -5.228,2.34 -5.228,5.228 0,2.454 1.69,4.512 3.97,5.075l-8.946 28.775 0.213 0.068 8.951 -28.793c0.336,0.068 0.684,0.103 1.04,0.103 2.888,0 5.228,-2.34 5.228,-5.228 0,-2.888 -2.34,-5.228 -5.228,-5.228z"/>
   <path class="fil3" d="M150.819 72.358c-2.397,0 -4.45,1.48 -5.294,3.575l-31.1 -13.417 -0.089 0.206 31.109 13.42c-0.215,0.601 -0.332,1.247 -0.332,1.923 0,3.151 2.554,5.706 5.706,5.706 3.152,0 5.708,-2.555 5.708,-5.706 0,-3.152 -2.555,-5.708 -5.708,-5.708z"/>
   <path class="fil4" d="M92.881 43.44c0.421,-0.62 0.666,-1.368 0.666,-2.173 0,-2.138 -1.733,-3.87 -3.87,-3.87 -2.14,0 -3.872,1.733 -3.872,3.87 0,2.138 1.733,3.872 3.872,3.872 1.251,0 2.363,-0.595 3.071,-1.518l0 0 21.559 19.082 0.149 -0.167 -21.575 -19.096z"/>
   <path class="fil4" d="M114.485 62.577l-12.546 -31.235c1.859,-0.643 3.193,-2.41 3.193,-4.487 0,-2.623 -2.125,-4.75 -4.75,-4.75 -2.623,0 -4.748,2.127 -4.748,4.75 0,2.623 2.125,4.75 4.748,4.75 0.467,0 0.917,-0.069 1.342,-0.194l12.553 31.249 0.208 -0.084z"/>
   <path class="fil3" d="M128.829 62.62c0,-7.979 -6.468,-14.447 -14.447,-14.447 -7.979,0 -14.447,6.468 -14.447,14.447 0,7.979 6.468,14.447 14.447,14.447 7.979,0 14.447,-6.468 14.447,-14.447z"/>
   <path class="fil6" d="M106.269 68.686c0.043,0 0.075,-0.005 0.101,-0.014 0.025,-0.009 0.046,-0.021 0.06,-0.039 0.014,-0.02 0.025,-0.043 0.03,-0.071 0.005,-0.028 0.007,-0.062 0.007,-0.101 0,-0.039 -0.002,-0.073 -0.007,-0.101 -0.005,-0.028 -0.016,-0.052 -0.03,-0.069 -0.014,-0.02 -0.035,-0.034 -0.06,-0.043 -0.027,-0.009 -0.059,-0.012 -0.101,-0.012 -0.039,0 -0.073,0.004 -0.098,0.012 -0.027,0.009 -0.046,0.023 -0.06,0.043 -0.016,0.018 -0.025,0.041 -0.03,0.069 -0.005,0.028 -0.009,0.062 -0.009,0.101 0,0.039 0.004,0.073 0.009,0.101 0.005,0.028 0.014,0.052 0.03,0.071 0.014,0.018 0.034,0.03 0.06,0.039 0.025,0.009 0.059,0.014 0.098,0.014zm0 0.06c-0.046,0 -0.089,-0.004 -0.124,-0.012 -0.036,-0.009 -0.066,-0.025 -0.091,-0.046 -0.023,-0.021 -0.043,-0.052 -0.055,-0.087 -0.011,-0.037 -0.018,-0.084 -0.018,-0.14 0,-0.057 0.007,-0.103 0.018,-0.14 0.012,-0.036 0.032,-0.066 0.055,-0.087 0.025,-0.023 0.055,-0.037 0.091,-0.046 0.036,-0.009 0.078,-0.014 0.124,-0.014 0.048,0 0.091,0.005 0.126,0.014 0.035,0.009 0.066,0.023 0.091,0.046 0.023,0.021 0.043,0.052 0.055,0.087 0.011,0.037 0.018,0.084 0.018,0.14 0,0.057 -0.007,0.103 -0.018,0.14 -0.012,0.036 -0.032,0.066 -0.055,0.087 -0.025,0.021 -0.055,0.037 -0.091,0.046 -0.036,0.009 -0.078,0.012 -0.126,0.012z"/>
   <path class="fil6" d="M106.882 68.747c-0.02,0 -0.041,0 -0.06,-0.002 -0.021,0 -0.039,-0.002 -0.057,-0.005 -0.018,-0.002 -0.034,-0.004 -0.048,-0.005l-0.032 -0.009 0 -0.066 0.036 0.009c0.014,0.004 0.03,0.005 0.048,0.007 0.018,0.004 0.036,0.005 0.055,0.007 0.019,0 0.039,0.002 0.059,0.002 0.052,0 0.089,-0.007 0.114,-0.021 0.027,-0.014 0.039,-0.039 0.039,-0.073 0,-0.018 -0.002,-0.032 -0.005,-0.043l-0.025 -0.03c-0.011,-0.009 -0.027,-0.014 -0.046,-0.021 -0.02,-0.005 -0.046,-0.012 -0.078,-0.018 -0.034,-0.007 -0.062,-0.014 -0.087,-0.021 -0.023,-0.009 -0.043,-0.018 -0.057,-0.03 -0.014,-0.011 -0.027,-0.025 -0.032,-0.041 -0.007,-0.018 -0.011,-0.037 -0.011,-0.062 0,-0.052 0.018,-0.089 0.055,-0.114 0.036,-0.025 0.092,-0.037 0.167,-0.037 0.016,0 0.034,0 0.05,0.002 0.016,0 0.032,0.002 0.046,0.004l0.043 0.007 0.03 0.007 0 0.066c-0.019,-0.005 -0.044,-0.011 -0.075,-0.016 -0.032,-0.004 -0.062,-0.005 -0.092,-0.005 -0.023,0 -0.044,0 -0.06,0.004 -0.018,0.002 -0.032,0.005 -0.044,0.012l-0.025 0.027c-0.005,0.011 -0.009,0.027 -0.009,0.044l0.005 0.034 0.018 0.023c0.011,0.007 0.025,0.014 0.043,0.02 0.018,0.005 0.041,0.012 0.071,0.018 0.037,0.007 0.069,0.016 0.096,0.023 0.027,0.009 0.046,0.02 0.062,0.032 0.018,0.012 0.028,0.028 0.036,0.048 0.007,0.018 0.011,0.041 0.011,0.068 0,0.055 -0.02,0.096 -0.06,0.121 -0.041,0.025 -0.1,0.037 -0.178,0.037z"/>
   <polygon class="fil6" points="107.771,68.182 107.771,68.74 107.682,68.74 107.682,68.47 107.352,68.47 107.352,68.74 107.265,68.74 107.265,68.182 107.352,68.182 107.352,68.409 107.682,68.409 107.682,68.182 "/>
   <path class="fil6" d="M108.301 68.509l-0.114 -0.259 -0.011 0 -0.116 0.259 0.24 0zm0.028 0.064l-0.297 0 -0.075 0.167 -0.087 0 0.252 -0.558 0.117 0 0.252 0.558 -0.092 0 -0.071 -0.167z"/>
   <polygon class="fil6" points="108.592,68.182 108.727,68.182 109.033,68.646 109.038,68.646 109.038,68.182 109.125,68.182 109.125,68.74 109.011,68.74 108.683,68.248 108.677,68.248 108.677,68.74 108.592,68.74 "/>
   <polygon class="fil6" points="109.552,68.182 109.69,68.182 109.861,68.541 109.866,68.541 110.037,68.182 110.175,68.182 110.175,68.74 110.088,68.74 110.088,68.255 110.081,68.255 109.91,68.614 109.816,68.614 109.642,68.255 109.637,68.255 109.637,68.74 109.552,68.74 "/>
   <polygon class="fil6" points="110.749,68.674 110.749,68.74 110.353,68.74 110.353,68.182 110.724,68.182 110.724,68.246 110.438,68.246 110.438,68.418 110.705,68.418 110.705,68.48 110.438,68.48 110.438,68.674 "/>
   <path class="fil6" d="M111.08 68.676c0.036,0 0.068,-0.004 0.096,-0.009 0.028,-0.007 0.053,-0.02 0.075,-0.036 0.021,-0.016 0.037,-0.039 0.048,-0.066 0.011,-0.028 0.018,-0.064 0.018,-0.105 0,-0.044 -0.007,-0.082 -0.018,-0.108 -0.012,-0.028 -0.028,-0.052 -0.05,-0.068 -0.021,-0.016 -0.046,-0.027 -0.075,-0.032 -0.028,-0.005 -0.06,-0.009 -0.094,-0.009l-0.105 0 0 0.432 0.105 0zm0.002 -0.494c0.048,0 0.092,0.004 0.132,0.011 0.041,0.007 0.075,0.021 0.103,0.041 0.028,0.021 0.05,0.05 0.066,0.085 0.016,0.037 0.023,0.084 0.023,0.142 0,0.053 -0.007,0.099 -0.023,0.135 -0.016,0.035 -0.037,0.064 -0.066,0.085 -0.028,0.021 -0.062,0.036 -0.103,0.044 -0.039,0.009 -0.084,0.014 -0.132,0.014l-0.192 0 0 -0.558 0.192 0z"/>
   <polygon class="fil6" points="111.563,68.182 111.65,68.182 111.65,68.74 111.563,68.74 "/>
   <path class="fil6" d="M112.114 68.747c-0.046,0 -0.089,-0.004 -0.126,-0.011 -0.037,-0.009 -0.069,-0.023 -0.096,-0.044 -0.027,-0.021 -0.046,-0.05 -0.062,-0.087 -0.014,-0.037 -0.021,-0.085 -0.021,-0.144 0,-0.053 0.007,-0.1 0.023,-0.135 0.014,-0.037 0.036,-0.067 0.062,-0.089 0.027,-0.023 0.06,-0.039 0.1,-0.05 0.039,-0.009 0.082,-0.014 0.13,-0.014 0.032,0 0.059,0.002 0.082,0.005 0.021,0.002 0.044,0.005 0.064,0.011l0 0.068c-0.02,-0.005 -0.041,-0.011 -0.064,-0.014 -0.023,-0.004 -0.05,-0.005 -0.08,-0.005 -0.037,0 -0.071,0.004 -0.099,0.011 -0.028,0.009 -0.052,0.021 -0.069,0.037 -0.02,0.018 -0.034,0.041 -0.043,0.069 -0.009,0.028 -0.014,0.062 -0.014,0.105 0,0.044 0.005,0.082 0.014,0.11 0.007,0.028 0.021,0.052 0.039,0.068 0.018,0.018 0.039,0.028 0.068,0.036 0.027,0.007 0.059,0.011 0.096,0.011 0.032,0 0.06,-0.002 0.085,-0.005 0.023,-0.004 0.05,-0.009 0.075,-0.016l0 0.062c-0.018,0.007 -0.041,0.012 -0.069,0.018 -0.028,0.004 -0.059,0.005 -0.092,0.005z"/>
   <path class="fil6" d="M112.759 68.509l-0.114 -0.259 -0.011 0 -0.116 0.259 0.24 0zm0.027 0.064l-0.295 0 -0.075 0.167 -0.089 0 0.254 -0.558 0.116 0 0.254 0.558 -0.092 0 -0.073 -0.167z"/>
   <polygon class="fil6" points="113.427,68.674 113.427,68.74 113.051,68.74 113.051,68.182 113.138,68.182 113.138,68.674 "/>
   <path class="fil6" d="M113.998 68.233c-0.021,0 -0.039,0.005 -0.055,0.02 -0.014,0.012 -0.021,0.028 -0.021,0.05l0.009 0.044c0.005,0.014 0.016,0.03 0.03,0.048 0.036,-0.014 0.064,-0.028 0.082,-0.043 0.016,-0.014 0.025,-0.034 0.025,-0.055 0,-0.02 -0.005,-0.036 -0.018,-0.046 -0.012,-0.012 -0.03,-0.018 -0.052,-0.018zm-0.174 0.354c0,0.032 0.012,0.055 0.036,0.073 0.025,0.018 0.055,0.027 0.094,0.027 0.025,0 0.048,-0.004 0.069,-0.011 0.021,-0.009 0.044,-0.02 0.067,-0.037l-0.16 -0.167c-0.039,0.02 -0.067,0.037 -0.082,0.057 -0.016,0.018 -0.025,0.039 -0.025,0.059zm0.371 0.05c0.016,0.012 0.032,0.023 0.05,0.03 0.018,0.009 0.041,0.012 0.071,0.012l0 0.06c-0.023,0 -0.043,0 -0.06,-0.002 -0.016,-0.002 -0.032,-0.004 -0.046,-0.009l-0.037 -0.016 -0.037 -0.028c-0.032,0.023 -0.064,0.039 -0.094,0.048 -0.032,0.011 -0.064,0.014 -0.098,0.014 -0.03,0 -0.059,-0.004 -0.084,-0.011 -0.027,-0.007 -0.048,-0.018 -0.066,-0.03 -0.018,-0.014 -0.032,-0.03 -0.043,-0.048 -0.009,-0.02 -0.014,-0.039 -0.014,-0.062 0,-0.032 0.011,-0.064 0.034,-0.091 0.021,-0.028 0.06,-0.055 0.116,-0.08l-0.025 -0.034 -0.016 -0.03 -0.009 -0.027 -0.002 -0.03c0,-0.02 0.005,-0.037 0.012,-0.053 0.009,-0.016 0.021,-0.03 0.036,-0.041 0.014,-0.012 0.032,-0.021 0.052,-0.027 0.02,-0.007 0.043,-0.011 0.066,-0.011 0.025,0 0.046,0.004 0.066,0.011 0.018,0.005 0.036,0.014 0.048,0.025l0.028 0.037c0.007,0.016 0.011,0.03 0.011,0.048 0,0.032 -0.012,0.06 -0.037,0.084 -0.025,0.021 -0.062,0.044 -0.112,0.064l0.14 0.144c0.018,-0.023 0.032,-0.044 0.041,-0.068 0.009,-0.023 0.016,-0.046 0.018,-0.068l0.084 0c-0.005,0.034 -0.016,0.068 -0.028,0.098 -0.012,0.03 -0.034,0.06 -0.062,0.089z"/>
   <path class="fil6" d="M114.831 68.482c0.032,0 0.057,-0.002 0.078,-0.007 0.021,-0.004 0.039,-0.009 0.052,-0.02l0.027 -0.037c0.005,-0.014 0.009,-0.034 0.009,-0.059 0,-0.021 -0.004,-0.039 -0.009,-0.053l-0.027 -0.035c-0.012,-0.011 -0.03,-0.016 -0.052,-0.021 -0.021,-0.004 -0.046,-0.005 -0.078,-0.005l-0.091 0 0 0.238 0.091 0zm-0.178 -0.3l0.187 0c0.046,0 0.085,0.004 0.117,0.011 0.032,0.007 0.057,0.018 0.076,0.032 0.018,0.014 0.032,0.032 0.039,0.055 0.009,0.023 0.012,0.05 0.012,0.08 0,0.034 -0.005,0.06 -0.014,0.084 -0.009,0.023 -0.025,0.043 -0.044,0.057 -0.02,0.014 -0.044,0.025 -0.076,0.032 -0.03,0.007 -0.068,0.011 -0.11,0.011l-0.1 0 0 0.197 -0.087 0 0 -0.558z"/>
   <polygon class="fil6" points="115.736,68.182 115.736,68.74 115.647,68.74 115.647,68.47 115.316,68.47 115.316,68.74 115.229,68.74 115.229,68.182 115.316,68.182 115.316,68.409 115.647,68.409 115.647,68.182 "/>
   <path class="fil6" d="M116.265 68.509l-0.114 -0.259 -0.011 0 -0.116 0.259 0.24 0zm0.028 0.064l-0.297 0 -0.073 0.167 -0.089 0 0.254 -0.558 0.116 0 0.252 0.558 -0.092 0 -0.071 -0.167z"/>
   <path class="fil6" d="M116.718 68.455c0.032,0 0.059,-0.002 0.08,-0.004 0.023,-0.004 0.041,-0.009 0.055,-0.016l0.03 -0.032c0.007,-0.014 0.011,-0.034 0.011,-0.057 0,-0.021 -0.004,-0.039 -0.011,-0.052l-0.03 -0.032c-0.014,-0.007 -0.032,-0.012 -0.055,-0.016 -0.021,-0.002 -0.048,-0.004 -0.08,-0.004l-0.075 0 0 0.211 0.075 0zm0.226 0.284l-0.185 -0.226 -0.016 0.002 -0.1 0 0 0.224 -0.087 0 0 -0.558 0.171 0c0.046,0 0.085,0.002 0.119,0.009 0.032,0.005 0.059,0.014 0.078,0.027 0.021,0.012 0.036,0.03 0.044,0.052 0.009,0.021 0.014,0.046 0.014,0.078 0,0.048 -0.012,0.083 -0.034,0.108 -0.023,0.025 -0.057,0.043 -0.105,0.051l0.201 0.233 -0.101 0z"/>
   <polygon class="fil6" points="117.15,68.182 117.289,68.182 117.459,68.541 117.465,68.541 117.635,68.182 117.772,68.182 117.772,68.74 117.687,68.74 117.687,68.255 117.68,68.255 117.509,68.614 117.413,68.614 117.241,68.255 117.234,68.255 117.234,68.74 117.15,68.74 "/>
   <path class="fil6" d="M118.303 68.509l-0.114 -0.259 -0.011 0 -0.116 0.259 0.24 0zm0.027 0.064l-0.295 0 -0.075 0.167 -0.089 0 0.254 -0.558 0.115 0 0.254 0.558 -0.092 0 -0.073 -0.167z"/>
   <path class="fil6" d="M118.861 68.747c-0.046,0 -0.089,-0.004 -0.126,-0.011 -0.037,-0.009 -0.069,-0.023 -0.096,-0.044 -0.027,-0.021 -0.048,-0.05 -0.062,-0.087 -0.014,-0.037 -0.021,-0.085 -0.021,-0.144 0,-0.053 0.007,-0.1 0.021,-0.135 0.016,-0.037 0.035,-0.067 0.064,-0.089 0.027,-0.023 0.059,-0.039 0.098,-0.05 0.039,-0.009 0.084,-0.014 0.132,-0.014 0.03,0 0.057,0.002 0.08,0.005 0.023,0.002 0.044,0.005 0.064,0.011l0 0.068c-0.018,-0.005 -0.039,-0.011 -0.062,-0.014 -0.023,-0.004 -0.05,-0.005 -0.08,-0.005 -0.037,0 -0.071,0.004 -0.1,0.011 -0.028,0.009 -0.052,0.021 -0.071,0.037 -0.018,0.018 -0.032,0.041 -0.041,0.069 -0.009,0.028 -0.014,0.062 -0.014,0.105 0,0.044 0.004,0.082 0.012,0.11 0.009,0.028 0.023,0.052 0.041,0.068 0.018,0.018 0.039,0.028 0.068,0.036 0.027,0.007 0.059,0.011 0.096,0.011 0.032,0 0.06,-0.002 0.084,-0.005 0.025,-0.004 0.05,-0.009 0.076,-0.016l0 0.062c-0.02,0.007 -0.043,0.012 -0.069,0.018 -0.028,0.004 -0.059,0.005 -0.092,0.005z"/>
   <polygon class="fil6" points="119.549,68.674 119.549,68.74 119.153,68.74 119.153,68.182 119.526,68.182 119.526,68.246 119.24,68.246 119.24,68.418 119.506,68.418 119.506,68.48 119.24,68.48 119.24,68.674 "/>
   <path class="fil6" d="M119.938 68.747c-0.084,0 -0.147,-0.014 -0.188,-0.043 -0.043,-0.028 -0.062,-0.076 -0.062,-0.144l0 -0.378 0.085 0 0 0.361c0,0.028 0.004,0.05 0.009,0.068 0.005,0.018 0.014,0.032 0.028,0.043 0.012,0.011 0.03,0.02 0.052,0.025 0.021,0.004 0.048,0.007 0.078,0.007 0.032,0 0.059,-0.004 0.08,-0.007 0.021,-0.005 0.039,-0.014 0.052,-0.025 0.014,-0.011 0.023,-0.025 0.027,-0.043 0.005,-0.018 0.009,-0.039 0.009,-0.068l0 -0.361 0.085 0 0 0.378c0,0.066 -0.021,0.114 -0.064,0.142 -0.043,0.03 -0.105,0.044 -0.19,0.044z"/>
   <polygon class="fil6" points="120.772,68.246 120.576,68.246 120.576,68.74 120.489,68.74 120.489,68.246 120.294,68.246 120.294,68.182 120.772,68.182 "/>
   <polygon class="fil6" points="120.876,68.182 120.964,68.182 120.964,68.74 120.876,68.74 "/>
   <path class="fil6" d="M121.426 68.747c-0.046,0 -0.087,-0.004 -0.124,-0.011 -0.037,-0.009 -0.069,-0.023 -0.096,-0.044 -0.027,-0.021 -0.048,-0.05 -0.062,-0.087 -0.014,-0.037 -0.021,-0.085 -0.021,-0.144 0,-0.053 0.007,-0.1 0.021,-0.135 0.016,-0.037 0.036,-0.067 0.062,-0.089 0.028,-0.023 0.06,-0.039 0.099,-0.05 0.039,-0.009 0.084,-0.014 0.132,-0.014 0.03,0 0.057,0.002 0.08,0.005 0.023,0.002 0.044,0.005 0.064,0.011l0 0.068c-0.02,-0.005 -0.041,-0.011 -0.064,-0.014 -0.023,-0.004 -0.048,-0.005 -0.078,-0.005 -0.039,0 -0.071,0.004 -0.099,0.011 -0.028,0.009 -0.052,0.021 -0.071,0.037 -0.018,0.018 -0.032,0.041 -0.041,0.069 -0.011,0.028 -0.014,0.062 -0.014,0.105 0,0.044 0.004,0.082 0.012,0.11 0.009,0.028 0.021,0.052 0.039,0.068 0.018,0.018 0.041,0.028 0.067,0.036 0.028,0.007 0.06,0.011 0.098,0.011 0.032,0 0.059,-0.002 0.084,-0.005 0.025,-0.004 0.05,-0.009 0.076,-0.016l0 0.062c-0.02,0.007 -0.043,0.012 -0.071,0.018 -0.027,0.004 -0.057,0.005 -0.092,0.005z"/>
   <path class="fil6" d="M122.071 68.509l-0.112 -0.259 -0.012 0 -0.116 0.259 0.24 0zm0.028 0.064l-0.297 0 -0.073 0.167 -0.089 0 0.254 -0.558 0.116 0 0.252 0.558 -0.091 0 -0.073 -0.167z"/>
   <polygon class="fil6" points="122.741,68.674 122.741,68.74 122.362,68.74 122.362,68.182 122.449,68.182 122.449,68.674 "/>
   <path class="fil6" d="M108.407 65.108l0 0.496 0.123 0 0 -0.421c0.004,-0.052 -0.028,-0.076 -0.092,-0.075l-0.03 0zm-0.72 1.331l0.155 0 0 -0.563 -0.155 0 0 0.563zm0 -0.835l0.155 0 0 -0.496 -0.155 0 0 0.496zm-0.565 0.835l0 -0.563 -0.108 0 -0.039 0.563 0.147 0zm0.565 -1.807l0 0.204 0.155 0 0 -0.204 0.565 0 0 0.204 0.256 0c0.163,-0.002 0.279,0.021 0.341,0.073 0.064,0.05 0.094,0.142 0.091,0.274l0 0.693 -0.688 0 0 0.563 0.332 0c0.165,-0.002 0.277,0.021 0.338,0.071 0.059,0.048 0.085,0.139 0.08,0.27l-0.014 0.668 -0.636 0 0 -0.272 0.071 0 0.007 -0.354c0.011,-0.078 -0.034,-0.114 -0.132,-0.105l-0.046 0 0 0.904 -0.565 0 0 -0.904 -0.24 0 -0.581 0.904 -0.65 0 0.611 -0.904 -0.602 0 0.06 -1.114 0.682 0 0 -0.496 -0.627 0 0 -0.272 0.627 0 0 -0.204 0.565 0zm-1.153 0l-0.318 1.127 0.069 0 0 1.852 -0.697 0 0 -1.58 -0.185 0 0.395 -1.399 0.736 0z"/>
   <polygon class="fil6" points="110.925,65.028 110.925,67.325 111.49,67.325 111.49,64.637 112.263,64.637 112.263,67.325 112.844,67.325 112.844,65.028 113.619,65.028 113.619,67.597 110.15,67.597 110.15,65.028 "/>
   <path class="fil6" d="M115.613 66.296l0 -0.272 0.913 0 0 -0.526 -0.147 0 -0.107 0.402 -0.729 0 0.247 -0.86 0.706 0 -0.039 0.185 1.665 0 0 0.274 -0.86 0 0 0.526 0.944 0 0 0.272 -0.944 0 0 0.069 0.96 0.903 -0.944 0 -0.371 -0.364 -0.419 0.364 -0.936 0 0.976 -0.91 0 -0.062 -0.913 0zm2.655 1.066l0 0.24 -3.559 0 0 -2.904 3.513 0 0 0.254 -2.74 0 0 2.41 2.786 0z"/>
   <path class="fil6" d="M120.772 66.303l0.789 0 0.256 0.793 -0.798 0 -0.247 -0.793zm0.673 -0.167l-0.805 0 0.503 -0.782 0.796 0 -0.092 0.162 0.457 0c0.165,-0.002 0.277,0.021 0.339,0.069 0.06,0.05 0.089,0.139 0.087,0.272l-0.039 1.752 -1.192 0 0 -0.272 0.45 0 0.023 -1.431c0.012,-0.089 -0.037,-0.128 -0.147,-0.119l-0.155 0 -0.224 0.348zm-2.161 1.194l1.448 0 0 0.272 -1.448 0 0 -0.272zm2.044 -2.699l0.775 0 0 0.197 0.713 0 0 0.274 -0.713 0 0 0.179 -0.775 0 0 -0.179 -0.642 0 0 0.179 -0.759 0 0 -0.179 -0.69 0 0 -0.274 0.69 0 0 -0.197 0.759 0 0 0.197 0.642 0 0 -0.197zm-1.13 2.154l0.466 0 0 0.274 -1.379 0 0.387 -0.663 -0.549 0 0.526 -1.041 0.75 0 -0.309 0.608 0.526 0 -0.418 0.823z"/>
   <polygon class="fil6" points="113.459,59.286 111.083,59.286 111.083,58.222 113.457,58.222 113.457,55.89 118.398,55.89 118.398,54.621 112.183,54.621 112.183,56.953 109.809,56.953 109.809,60.555 113.459,60.555 "/>
   <polygon class="fil6" points="118.398,60.555 118.398,56.953 114.748,56.953 114.748,58.222 117.123,58.222 117.123,59.286 114.748,59.286 114.748,61.618 109.809,61.618 109.809,62.888 116.023,62.888 116.022,60.555 "/>
   <polygon class="fil7" points="93.411,89.101 111.041,89.101 111.041,96.154 93.411,96.154 "/>
  </g>
 </g>
</svg>