<?xml version='1.0' encoding='UTF-8'?>
<!DOCTYPE svg PUBLIC "-//W3C//DTD SVG 1.1//EN" "http://www.w3.org/Graphics/SVG/1.1/DTD/svg11.dtd">
<!-- Creator: CorelDRAW --><svg xmlns="http://www.w3.org/2000/svg" xmlns:xlink="http://www.w3.org/1999/xlink" xmlns:xodm="http://www.corel.com/coreldraw/odm/2003" xml:space="preserve" width="500.2mm" height="240.2mm" version="1.1" style="shape-rendering:geometricPrecision; text-rendering:geometricPrecision; image-rendering:optimizeQuality; fill-rule:evenodd; clip-rule:evenodd" viewBox="0 0 141.975 68.177">
 <defs>
  <style type="text/css">
   
    .str0 {stroke:#332C2B;stroke-width:0.057;stroke-miterlimit:22.9256}
    .fil0 {fill:none}
    .fil12 {fill:#E8E8E9;fill-rule:nonzero}
    .fil11 {fill:#E7E6E7;fill-rule:nonzero}
    .fil17 {fill:#E7E5E6;fill-rule:nonzero}
    .fil15 {fill:#E5E3E2;fill-rule:nonzero}
    .fil20 {fill:#DFDFDF;fill-rule:nonzero}
    .fil22 {fill:#CCB792;fill-rule:nonzero}
    .fil19 {fill:#1C6CAD;fill-rule:nonzero}
    .fil18 {fill:#20488F;fill-rule:nonzero}
    .fil21 {fill:#15499A;fill-rule:nonzero}
    .fil14 {fill:#7AABDE;fill-rule:nonzero}
    .fil10 {fill:#1A75CF;fill-rule:nonzero}
    .fil4 {fill:url(#id0)}
    .fil5 {fill:url(#id1)}
    .fil8 {fill:url(#id2)}
    .fil7 {fill:url(#id3)}
    .fil2 {fill:url(#id4)}
    .fil9 {fill:url(#id5)}
    .fil3 {fill:url(#id6)}
    .fil6 {fill:url(#id7)}
    .fil1 {fill:url(#id8)}
    .fil13 {fill:url(#id9)}
    .fil16 {fill:url(#id10)}
   
  </style>
  <linearGradient id="id0" gradientUnits="userSpaceOnUse" x1="73.947" y1="39.256" x2="73.947" y2="19.352">
   <stop offset="0" style="stop-opacity:1; stop-color:white"/>
   <stop offset="0.74902" style="stop-opacity:1; stop-color:#9EC5EB"/>
   <stop offset="1" style="stop-opacity:1; stop-color:#3C8AD6"/>
  </linearGradient>
  <linearGradient id="id1" gradientUnits="userSpaceOnUse" x1="73.947" y1="38.251" x2="73.947" y2="20.358">
   <stop offset="0" style="stop-opacity:1; stop-color:white"/>
   <stop offset="0.74902" style="stop-opacity:1; stop-color:#A4C8EC"/>
   <stop offset="1" style="stop-opacity:1; stop-color:#4891D9"/>
  </linearGradient>
  <linearGradient id="id2" gradientUnits="userSpaceOnUse" x1="73.947" y1="35.233" x2="73.947" y2="23.376">
   <stop offset="0" style="stop-opacity:1; stop-color:white"/>
   <stop offset="0.74902" style="stop-opacity:1; stop-color:#B5D2F0"/>
   <stop offset="1" style="stop-opacity:1; stop-color:#6AA5E0"/>
  </linearGradient>
  <linearGradient id="id3" gradientUnits="userSpaceOnUse" x1="73.947" y1="36.238" x2="73.947" y2="22.369">
   <stop offset="0" style="stop-opacity:1; stop-color:white"/>
   <stop offset="0.74902" style="stop-opacity:1; stop-color:#B0D0EF"/>
   <stop offset="1" style="stop-opacity:1; stop-color:#61A0DE"/>
  </linearGradient>
  <linearGradient id="id4" gradientUnits="userSpaceOnUse" x1="73.947" y1="41.268" x2="73.947" y2="17.34">
   <stop offset="0" style="stop-opacity:1; stop-color:white"/>
   <stop offset="0.74902" style="stop-opacity:1; stop-color:#94BEE9"/>
   <stop offset="1" style="stop-opacity:1; stop-color:#287DD2"/>
  </linearGradient>
  <linearGradient id="id5" gradientUnits="userSpaceOnUse" x1="73.947" y1="34.226" x2="73.947" y2="24.381">
   <stop offset="0" style="stop-opacity:1; stop-color:white"/>
   <stop offset="0.74902" style="stop-opacity:1; stop-color:#BBD6F1"/>
   <stop offset="1" style="stop-opacity:1; stop-color:#76ACE2"/>
  </linearGradient>
  <linearGradient id="id6" gradientUnits="userSpaceOnUse" x1="73.947" y1="40.263" x2="73.947" y2="18.346">
   <stop offset="0" style="stop-opacity:1; stop-color:white"/>
   <stop offset="0.74902" style="stop-opacity:1; stop-color:#99C2EA"/>
   <stop offset="1" style="stop-opacity:1; stop-color:#3384D4"/>
  </linearGradient>
  <linearGradient id="id7" gradientUnits="userSpaceOnUse" x1="73.947" y1="37.244" x2="73.947" y2="21.364">
   <stop offset="0" style="stop-opacity:1; stop-color:white"/>
   <stop offset="0.74902" style="stop-opacity:1; stop-color:#ABCCED"/>
   <stop offset="1" style="stop-opacity:1; stop-color:#5699DB"/>
  </linearGradient>
  <linearGradient id="id8" gradientUnits="userSpaceOnUse" x1="73.947" y1="42.274" x2="73.947" y2="16.334">
   <stop offset="0" style="stop-opacity:1; stop-color:white"/>
   <stop offset="0.74902" style="stop-opacity:1; stop-color:#8DBAE7"/>
   <stop offset="1" style="stop-opacity:1; stop-color:#1A75CF"/>
  </linearGradient>
  <linearGradient id="id9" gradientUnits="userSpaceOnUse" x1="73.947" y1="38.251" x2="73.947" y2="20.358">
   <stop offset="0" style="stop-opacity:1; stop-color:white"/>
   <stop offset="0.74902" style="stop-opacity:1; stop-color:#C0D9F2"/>
   <stop offset="1" style="stop-opacity:1; stop-color:#81B3E5"/>
  </linearGradient>
  <linearGradient id="id10" gradientUnits="userSpaceOnUse" x1="73.947" y1="35.233" x2="73.947" y2="23.376">
   <stop offset="0" style="stop-opacity:1; stop-color:white"/>
   <stop offset="0.74902" style="stop-opacity:1; stop-color:#C4DBF3"/>
   <stop offset="1" style="stop-opacity:1; stop-color:#88B7E6"/>
  </linearGradient>
 </defs>
 <g id="圖層_x0020_1">
  <metadata id="CorelCorpID_0Corel-Layer"/>
  <g id="_2705635536800">
   <polygon class="fil0 str0" points="0.028,0.028 141.946,0.028 141.946,68.149 0.028,68.149 "/>
   <g>
    <path class="fil1" d="M73.946 42.274c-0.174,0 -0.347,-0.045 -0.502,-0.135l-10.363 -5.982c-0.311,-0.179 -0.504,-0.513 -0.504,-0.871l0 -11.966c0,-0.358 0.193,-0.692 0.504,-0.87l10.363 -5.982c0.155,-0.089 0.329,-0.134 0.502,-0.134 0.174,0 0.348,0.045 0.503,0.134l10.364 5.982c0.31,0.179 0.503,0.513 0.503,0.87l0 11.966c0,0.359 -0.193,0.693 -0.503,0.871l-10.364 5.982c-0.155,0.09 -0.329,0.135 -0.503,0.135zm0 -25.789c-0.147,0 -0.295,0.038 -0.427,0.114l-10.363 5.982c-0.263,0.152 -0.427,0.435 -0.427,0.739l0 11.966c0,0.305 0.164,0.588 0.427,0.74l10.363 5.982c0.132,0.076 0.28,0.114 0.427,0.114 0.148,0 0.296,-0.038 0.427,-0.114l10.364 -5.982c0.263,-0.152 0.427,-0.435 0.427,-0.74l0 -11.966c0,-0.304 -0.164,-0.587 -0.427,-0.739l-10.364 -5.982c-0.131,-0.076 -0.279,-0.114 -0.427,-0.114z"/>
    <path class="fil2" d="M73.946 41.268c-0.172,0 -0.345,-0.044 -0.499,-0.133l-9.497 -5.483c-0.308,-0.178 -0.5,-0.509 -0.5,-0.864l0 -10.968c0,-0.356 0.192,-0.687 0.5,-0.864l9.497 -5.483c0.154,-0.089 0.327,-0.133 0.499,-0.133 0.173,0 0.346,0.044 0.5,0.133l9.497 5.483c0.309,0.178 0.5,0.509 0.5,0.864l0 10.968c0,0.356 -0.191,0.687 -0.5,0.864l-9.497 5.483c-0.154,0.089 -0.327,0.133 -0.5,0.133zm0 -23.79c-0.148,0 -0.297,0.038 -0.43,0.114l-9.498 5.483c-0.265,0.154 -0.43,0.439 -0.43,0.746l0 10.968c0,0.306 0.165,0.592 0.43,0.746l9.498 5.482c0.133,0.077 0.282,0.115 0.431,0.115 0.148,0 0.297,-0.038 0.43,-0.115l9.497 -5.482c0.266,-0.154 0.431,-0.44 0.431,-0.746l0 -10.968c0,-0.307 -0.165,-0.592 -0.431,-0.746l-9.497 -5.483c-0.133,-0.076 -0.282,-0.114 -0.431,-0.114z"/>
    <path class="fil3" d="M73.946 40.263c-0.171,0 -0.342,-0.045 -0.495,-0.133l-8.633 -4.983c-0.306,-0.177 -0.496,-0.506 -0.496,-0.858l0 -9.968c0,-0.353 0.19,-0.683 0.496,-0.858l8.633 -4.983c0.152,-0.089 0.324,-0.133 0.495,-0.133 0.172,0 0.343,0.044 0.496,0.133l8.633 4.983c0.306,0.176 0.496,0.506 0.496,0.858l0 9.968c0,0.353 -0.19,0.682 -0.496,0.858l-8.633 4.983c-0.153,0.088 -0.324,0.133 -0.496,0.133zm0 -21.793c-0.15,0 -0.3,0.039 -0.434,0.116l-8.632 4.983c-0.268,0.155 -0.435,0.443 -0.435,0.752l0 9.968c0,0.309 0.167,0.597 0.435,0.752l8.632 4.983c0.134,0.078 0.284,0.116 0.434,0.116 0.151,0 0.301,-0.038 0.434,-0.116l8.634 -4.983c0.267,-0.155 0.434,-0.443 0.434,-0.752l0 -9.968c0,-0.309 -0.167,-0.597 -0.434,-0.752l-8.634 -4.983c-0.133,-0.077 -0.283,-0.116 -0.434,-0.116z"/>
    <path class="fil4" d="M73.946 39.256c-0.17,0 -0.34,-0.044 -0.492,-0.131l-7.767 -4.484c-0.304,-0.175 -0.492,-0.502 -0.492,-0.853l0 -8.969c0,-0.351 0.188,-0.678 0.492,-0.853l7.767 -4.484c0.152,-0.087 0.322,-0.131 0.492,-0.131 0.171,0 0.341,0.044 0.493,0.131l7.767 4.484c0.304,0.175 0.493,0.502 0.493,0.853l0 8.969c0,0.351 -0.189,0.678 -0.493,0.853l-7.767 4.484c-0.152,0.087 -0.322,0.131 -0.493,0.131zm0 -19.795c-0.151,0 -0.302,0.039 -0.437,0.117l-7.767 4.483c-0.27,0.157 -0.438,0.447 -0.438,0.759l0 8.969c0,0.312 0.168,0.603 0.438,0.758l7.767 4.484c0.135,0.078 0.286,0.117 0.437,0.117 0.152,0 0.303,-0.039 0.438,-0.117l7.767 -4.484c0.27,-0.155 0.438,-0.446 0.438,-0.758l0 -8.969c0,-0.312 -0.168,-0.602 -0.438,-0.759l-7.767 -4.483c-0.135,-0.078 -0.286,-0.117 -0.438,-0.117z"/>
    <path class="fil5" d="M73.946 38.25c-0.169,0 -0.338,-0.043 -0.488,-0.13l-6.903 -3.985c-0.301,-0.174 -0.488,-0.498 -0.488,-0.846l0 -7.969c0,-0.349 0.187,-0.673 0.488,-0.847l4.791 -2.765c0.007,0.006 0.015,0.012 0.023,0.017l0.068 0.04 -4.834 2.79c-0.273,0.157 -0.442,0.45 -0.442,0.765l0 7.969c0,0.315 0.169,0.608 0.442,0.765l6.902 3.985c0.136,0.078 0.289,0.118 0.441,0.118 0.153,0 0.306,-0.04 0.442,-0.118l6.902 -3.985c0.272,-0.157 0.441,-0.45 0.441,-0.765l0 -7.969c0,-0.315 -0.169,-0.608 -0.441,-0.765l-6.902 -3.985c-0.136,-0.078 -0.289,-0.117 -0.442,-0.117 -0.152,0 -0.305,0.039 -0.441,0.117l-1.467 0.848 0 -0.079c0,-0.01 -0.001,-0.02 -0.003,-0.029l1.423 -0.822c0.15,-0.087 0.319,-0.13 0.488,-0.13 0.17,0 0.339,0.043 0.489,0.13l6.903 3.985c0.301,0.174 0.489,0.498 0.489,0.847l0 7.969c0,0.349 -0.188,0.673 -0.489,0.846l-6.903 3.985c-0.15,0.087 -0.319,0.13 -0.489,0.13z"/>
    <path class="fil6" d="M73.946 37.244c-0.167,0 -0.335,-0.043 -0.485,-0.13l-6.037 -3.485c-0.299,-0.173 -0.485,-0.495 -0.485,-0.84l0 -6.972c0,-0.345 0.186,-0.667 0.485,-0.84l6.037 -3.485c0.15,-0.087 0.318,-0.13 0.485,-0.13 0.168,0 0.336,0.043 0.486,0.13l6.037 3.485c0.299,0.173 0.485,0.495 0.485,0.84l0 6.972c0,0.345 -0.186,0.667 -0.485,0.84l-6.037 3.485c-0.15,0.087 -0.318,0.13 -0.486,0.13zm0 -15.8c-0.153,0 -0.307,0.039 -0.444,0.118l-6.037 3.486c-0.275,0.158 -0.445,0.454 -0.445,0.77l0 6.972c0,0.317 0.17,0.612 0.445,0.77l6.037 3.485c0.137,0.08 0.291,0.119 0.444,0.119 0.154,0 0.308,-0.039 0.445,-0.119l6.037 -3.485c0.275,-0.158 0.445,-0.453 0.445,-0.77l0 -6.972c0,-0.316 -0.17,-0.612 -0.445,-0.77l-6.037 -3.486c-0.137,-0.079 -0.291,-0.118 -0.445,-0.118z"/>
    <path class="fil7" d="M73.946 36.238c-0.166,0 -0.333,-0.043 -0.481,-0.128l-5.172 -2.986c-0.298,-0.171 -0.482,-0.491 -0.482,-0.834l0 -5.973c0,-0.343 0.184,-0.663 0.482,-0.833l5.172 -2.986c0.148,-0.086 0.315,-0.128 0.481,-0.128 0.167,0 0.334,0.043 0.482,0.128l5.173 2.986c0.296,0.171 0.481,0.491 0.481,0.833l0 5.973c0,0.343 -0.185,0.663 -0.481,0.834l-5.173 2.986c-0.148,0.085 -0.315,0.128 -0.482,0.128zm0 -13.802c-0.155,0 -0.309,0.04 -0.448,0.12l-5.172 2.985c-0.277,0.16 -0.449,0.458 -0.449,0.777l0 5.973c0,0.319 0.172,0.617 0.449,0.777l5.172 2.985c0.139,0.08 0.294,0.12 0.449,0.12 0.155,0 0.31,-0.04 0.448,-0.12l5.172 -2.985c0.277,-0.16 0.449,-0.458 0.449,-0.777l0 -5.973c0,-0.319 -0.172,-0.617 -0.449,-0.777l-5.172 -2.985c-0.138,-0.08 -0.293,-0.12 -0.449,-0.12z"/>
    <path class="fil8" d="M73.946 35.233c-0.165,0 -0.33,-0.043 -0.477,-0.128l-1.248 -0.721 0.033 -0.019c0.006,-0.004 0.012,-0.008 0.017,-0.012l1.223 0.707c0.14,0.08 0.296,0.121 0.453,0.121 0.156,0 0.312,-0.041 0.451,-0.121l4.307 -2.487c0.279,-0.161 0.452,-0.461 0.452,-0.783l0 -4.973c0,-0.322 -0.173,-0.622 -0.452,-0.783l-4.307 -2.487c-0.139,-0.08 -0.295,-0.121 -0.452,-0.121 -0.156,0 -0.312,0.041 -0.452,0.121l-4.306 2.487c-0.279,0.161 -0.452,0.461 -0.452,0.783l0 4.973c0,0.322 0.173,0.622 0.452,0.783l2.38 1.373c-0.002,0.007 -0.002,0.014 -0.002,0.021l0 0.039 -2.404 -1.388c-0.295,-0.17 -0.478,-0.487 -0.478,-0.828l0 -4.973c0,-0.341 0.183,-0.658 0.478,-0.828l4.307 -2.487c0.147,-0.085 0.312,-0.128 0.478,-0.128 0.165,0 0.33,0.043 0.478,0.128l4.306 2.487c0.295,0.17 0.478,0.487 0.478,0.828l0 4.973c0,0.341 -0.183,0.658 -0.478,0.828l-4.306 2.487c-0.148,0.085 -0.313,0.128 -0.479,0.128z"/>
    <path class="fil9" d="M73.946 34.226c-0.164,0 -0.328,-0.042 -0.474,-0.126l-3.442 -1.988c-0.293,-0.169 -0.474,-0.484 -0.474,-0.822l0 -3.974c0,-0.338 0.181,-0.653 0.474,-0.822l3.442 -1.988c0.146,-0.084 0.31,-0.126 0.475,-0.126 0.164,0 0.328,0.042 0.474,0.126l3.442 1.988c0.293,0.169 0.474,0.484 0.474,0.822l0 3.974c0,0.338 -0.181,0.653 -0.474,0.822l-3.442 1.988c-0.146,0.084 -0.311,0.126 -0.475,0.126zm0 -9.806c-0.157,0 -0.314,0.04 -0.455,0.121l-3.442 1.988c-0.281,0.162 -0.455,0.464 -0.455,0.789l0 3.974c0,0.325 0.174,0.627 0.455,0.79l3.442 1.987c0.141,0.081 0.298,0.121 0.456,0.121 0.157,0 0.315,-0.04 0.455,-0.121l3.442 -1.987c0.281,-0.163 0.456,-0.465 0.456,-0.79l0 -3.974c0,-0.325 -0.175,-0.627 -0.456,-0.789l-3.442 -1.988c-0.14,-0.081 -0.298,-0.121 -0.456,-0.121z"/>
    <path class="fil10" d="M74.701 21.708l0 -0.519c0,-0.078 -0.041,-0.15 -0.109,-0.19l-0.45 -0.259c-0.067,-0.039 -0.15,-0.039 -0.218,0l-0.45 0.259c-0.067,0.04 -0.109,0.112 -0.109,0.19l0 0.519c0,0.078 0.042,0.15 0.109,0.189l0.45 0.259c0.068,0.039 0.151,0.039 0.218,0l0.45 -0.259c0.068,-0.039 0.109,-0.111 0.109,-0.189z"/>
    <path class="fil11" d="M71.675 21.882c-0.02,0 -0.041,-0.006 -0.06,-0.016l-0.177 -0.102 0.601 -0.347 0 0.204c0,0.043 -0.022,0.082 -0.059,0.103l-0.245 0.142c-0.019,0.01 -0.039,0.016 -0.06,0.016zm-0.328 -0.175c-0.023,-0.023 -0.036,-0.053 -0.036,-0.086l0 -0.283c0,-0.043 0.023,-0.082 0.059,-0.103l0.245 -0.142c0.019,-0.011 0.04,-0.016 0.06,-0.016 0.021,0 0.041,0.005 0.06,0.016l0.245 0.142c0.028,0.016 0.048,0.043 0.056,0.074l-0.689 0.398z"/>
    <path class="fil12" d="M71.438 21.764l-0.068 -0.04c-0.008,-0.005 -0.016,-0.011 -0.023,-0.017l0.689 -0.398c0.002,0.009 0.003,0.019 0.003,0.029l0 0.079 -0.601 0.347z"/>
    <path class="fil13" d="M71.438 21.764l-0.068 -0.04c-0.008,-0.005 -0.016,-0.011 -0.023,-0.017l0.689 -0.398c0.002,0.009 0.003,0.019 0.003,0.029l0 0.079 -0.601 0.347z"/>
    <path class="fil10" d="M65.726 22.8l0 -0.283c0,-0.042 -0.023,-0.082 -0.06,-0.103l-0.245 -0.142c-0.037,-0.021 -0.083,-0.021 -0.119,0l-0.246 0.142c-0.037,0.021 -0.059,0.061 -0.059,0.103l0 0.283c0,0.043 0.022,0.082 0.059,0.104l0.246 0.141c0.036,0.021 0.082,0.021 0.119,0l0.245 -0.141c0.037,-0.022 0.06,-0.061 0.06,-0.104z"/>
    <path class="fil14" d="M78.595 20.246l0 -0.379c0,-0.057 -0.031,-0.11 -0.08,-0.138l-0.328 -0.19c-0.05,-0.028 -0.11,-0.028 -0.16,0l-0.328 0.19c-0.049,0.028 -0.08,0.081 -0.08,0.138l0 0.379c0,0.057 0.031,0.109 0.08,0.138l0.328 0.189c0.05,0.029 0.11,0.029 0.16,0l0.328 -0.189c0.049,-0.029 0.08,-0.081 0.08,-0.138z"/>
    <path class="fil10" d="M85.609 23.03l0 -0.424c0,-0.064 -0.035,-0.123 -0.09,-0.155l-0.368 -0.212c-0.055,-0.032 -0.123,-0.032 -0.178,0l-0.368 0.212c-0.055,0.032 -0.089,0.091 -0.089,0.155l0 0.424c0,0.064 0.034,0.123 0.089,0.155l0.368 0.212c0.055,0.032 0.123,0.032 0.178,0l0.368 -0.212c0.055,-0.032 0.09,-0.091 0.09,-0.155z"/>
    <path class="fil15" d="M71.94 34.527c-0.021,0 -0.042,-0.005 -0.061,-0.016l-0.253 -0.146c-0.038,-0.022 -0.061,-0.063 -0.061,-0.106l0 -0.253 0.656 0.378 -0.22 0.127c-0.018,0.011 -0.04,0.016 -0.061,0.016zm0.331 -0.174l-0.704 -0.407c0.006,-0.035 0.027,-0.067 0.059,-0.086l0.253 -0.145c0.019,-0.011 0.04,-0.017 0.061,-0.017 0.021,0 0.043,0.006 0.061,0.017l0.253 0.145c0.038,0.022 0.062,0.063 0.062,0.107l0 0.292c0,0.036 -0.017,0.071 -0.045,0.094z"/>
    <path class="fil15" d="M72.221 34.384l-0.656 -0.378 0 -0.039c0,-0.007 0,-0.014 0.002,-0.021l0.704 0.407c-0.005,0.004 -0.011,0.008 -0.017,0.012l-0.033 0.019z"/>
    <path class="fil16" d="M72.221 34.384l-0.656 -0.378 0 -0.039c0,-0.007 0,-0.014 0.002,-0.021l0.704 0.407c-0.005,0.004 -0.011,0.008 -0.017,0.012l-0.033 0.019z"/>
    <path class="fil11" d="M74.154 30.741c-0.021,0 -0.042,-0.006 -0.061,-0.016l-0.253 -0.146c-0.038,-0.022 -0.061,-0.063 -0.061,-0.107l0 -0.291c0,-0.044 0.023,-0.085 0.061,-0.107l0.253 -0.146c0.019,-0.011 0.04,-0.016 0.061,-0.016 0.021,0 0.043,0.005 0.062,0.016l0.252 0.146c0.038,0.022 0.062,0.063 0.062,0.107l0 0.291c0,0.044 -0.024,0.085 -0.062,0.107l-0.252 0.146c-0.019,0.01 -0.041,0.016 -0.062,0.016z"/>
    <polygon class="fil17" points="86.207,28.521 86.88,28.521 87.514,29.341 86.88,30.162 86.207,30.162 86.842,29.341 "/>
    <polygon class="fil17" points="87.514,28.521 88.188,28.521 88.822,29.341 88.188,30.162 87.514,30.162 88.15,29.341 "/>
    <polygon class="fil17" points="88.822,28.521 89.495,28.521 90.131,29.341 89.495,30.162 88.822,30.162 89.457,29.341 "/>
    <polygon class="fil17" points="90.131,28.521 90.803,28.521 91.438,29.341 90.803,30.162 90.131,30.162 90.765,29.341 "/>
    <polygon class="fil18" points="64.377,41.175 115.195,41.175 115.195,40.875 64.377,40.875 "/>
    <polygon class="fil17" points="44.625,37.11 45.355,37.11 46.044,38 45.355,38.889 44.625,38.889 45.314,38 "/>
    <polygon class="fil17" points="46.044,37.11 46.773,37.11 47.462,38 46.773,38.889 46.044,38.889 46.732,38 "/>
    <polygon class="fil17" points="47.462,37.11 48.192,37.11 48.88,38 48.192,38.889 47.462,38.889 48.15,38 "/>
    <polygon class="fil17" points="48.88,37.11 49.61,37.11 50.298,38 49.61,38.889 48.88,38.889 49.568,38 "/>
    <polygon class="fil18" points="64.403,40.875 51.059,40.875 47.886,42.583 14.504,42.583 14.504,42.883 47.962,42.883 51.135,41.175 64.403,41.175 "/>
    <polygon class="fil19" points="24.873,42.583 20.076,42.583 18.075,41.244 14.504,41.244 14.504,41.544 17.984,41.544 19.985,42.883 24.873,42.883 24.873,42.584 "/>
    <polygon class="fil18" points="39.98,42.883 64.929,42.883 64.929,42.583 39.98,42.583 "/>
    <path class="fil18" d="M65.313 42.733c0,-0.328 -0.266,-0.595 -0.595,-0.595 -0.328,0 -0.595,0.267 -0.595,0.595 0,0.329 0.267,0.596 0.595,0.596 0.329,0 0.595,-0.267 0.595,-0.596z"/>
    <path class="fil20" d="M64.473 45.74c-0.328,0 -0.595,-0.267 -0.595,-0.595 0,-0.329 0.267,-0.596 0.595,-0.596 0.296,0 0.54,0.216 0.587,0.498l51.813 0 9.948 0 0.651 0.668 -9.726 0 -0.604 -0.463 -52.083 0c-0.05,0.278 -0.293,0.488 -0.585,0.488z"/>
    <path class="fil20" d="M80.574 51.844c-0.279,0 -0.512,-0.191 -0.576,-0.449l-34.212 0.067 -2.716 -3.647 -10.398 0 -0.801 -0.612 -17.354 0 0 -0.224 25.476 0 2.732 0 19.644 0 0 0.112 0.088 0 0.706 0.724 -10.547 0 -0.801 -0.612 -8.925 0 3.006 4.035 34.086 -0.066c0.039,-0.292 0.287,-0.518 0.59,-0.518 0.329,0 0.595,0.266 0.595,0.595 0,0.329 -0.266,0.595 -0.595,0.595z"/>
    <path class="fil18" d="M124.769 41.2l-2.701 1.351c-0.009,-0.009 -0.018,-0.018 -0.028,-0.027l-1.355 -1.219c-0.118,-0.107 -0.272,-0.166 -0.432,-0.166 -0.117,0 -0.232,0.032 -0.333,0.092l-0.597 0.359c-0.034,0.02 -0.072,0.03 -0.111,0.03 -0.12,0 -0.217,-0.097 -0.217,-0.216l0 -0.032c0,-0.083 0.046,-0.157 0.12,-0.194l0.894 -0.447c0.153,-0.077 0.335,-0.094 0.5,-0.047l1.008 0.288 0.244 0.006 3.007 -1.583 0 1.805zm-3.059 1.864l-0.028 0c-0.04,0 -0.079,-0.014 -0.11,-0.04l-0.869 -0.726 -0.206 0.247 0.845 0.704c0.038,0.032 0.06,0.079 0.06,0.129 0,0.092 -0.075,0.167 -0.167,0.167l-0.035 0c-0.039,0 -0.077,-0.014 -0.107,-0.039l-0.871 -0.726 -0.206 0.247 0.844 0.704c0.039,0.032 0.061,0.078 0.061,0.128 0,0.093 -0.075,0.168 -0.168,0.168 -0.061,0 -0.121,-0.022 -0.169,-0.061l-0.358 -0.299c-0.079,-0.161 -0.241,-0.274 -0.431,-0.28 -0.009,-0.262 -0.219,-0.473 -0.481,-0.482 -0.009,-0.262 -0.22,-0.472 -0.482,-0.481 -0.009,-0.268 -0.228,-0.484 -0.499,-0.484 -0.131,0 -0.26,0.054 -0.354,0.147l-0.282 0.282c-0.017,0.017 -0.031,0.036 -0.045,0.055l-0.493 -0.296 0.432 -1.511 1.083 -0.241c0.284,-0.064 0.584,-0.05 0.86,0.039l0.236 0.075 -0.801 0.401c-0.183,0.092 -0.297,0.276 -0.297,0.481l0 0.032c0,0.296 0.241,0.537 0.538,0.537 0.097,0 0.193,-0.026 0.276,-0.076l0.598 -0.359c0.12,-0.072 0.281,-0.056 0.385,0.037l1.354 1.22c0.037,0.033 0.058,0.079 0.058,0.128 0,0.095 -0.078,0.173 -0.173,0.173zm-1.438 1.443l-0.03 0c-0.041,0 -0.08,-0.015 -0.11,-0.042l-0.12 -0.106 0.12 -0.12c0.043,-0.043 0.076,-0.094 0.101,-0.149l0.146 0.121c0.038,0.032 0.06,0.079 0.06,0.129 0,0.092 -0.075,0.167 -0.167,0.167zm-0.776 -0.16c-0.099,0 -0.18,-0.081 -0.18,-0.18 0,-0.048 0.019,-0.094 0.053,-0.128l0.282 -0.282c0.033,-0.033 0.08,-0.052 0.127,-0.052 0.099,0 0.18,0.08 0.18,0.18 0,0.047 -0.019,0.093 -0.053,0.127l-0.282 0.282c-0.034,0.034 -0.08,0.053 -0.127,0.053zm-0.662 -0.662c0,-0.047 0.02,-0.093 0.053,-0.127l0.282 -0.282c0.034,-0.034 0.08,-0.053 0.127,-0.053 0.1,0 0.18,0.081 0.18,0.18 0,0.048 -0.019,0.094 -0.052,0.127l-0.282 0.283c-0.034,0.033 -0.08,0.052 -0.128,0.052 -0.099,0 -0.18,-0.081 -0.18,-0.18zm-0.481 -0.481c0,-0.048 0.019,-0.094 0.053,-0.127l0.282 -0.283c0.033,-0.033 0.08,-0.052 0.127,-0.052 0.099,0 0.18,0.081 0.18,0.18 0,0.047 -0.019,0.093 -0.053,0.127l-0.282 0.282c-0.033,0.034 -0.08,0.053 -0.127,0.053 -0.099,0 -0.18,-0.081 -0.18,-0.18zm-0.482 -0.482c0,-0.047 0.02,-0.093 0.053,-0.127l0.282 -0.282c0.034,-0.034 0.08,-0.053 0.127,-0.053 0.1,0 0.18,0.081 0.18,0.18 0,0.048 -0.019,0.094 -0.052,0.128l-0.282 0.282c-0.034,0.033 -0.08,0.052 -0.128,0.052 -0.099,0 -0.18,-0.08 -0.18,-0.18zm-1.096 -0.462l-0.316 -0.105 0.566 -2.262 0.366 0.214 0 0.046 -0.602 2.107 -0.014 0zm-1.309 -3.207l0.117 0 1.153 0.673 -0.582 2.328 -0.689 -0.229 0 -2.771zm1.764 0.285l0 -0.508 -0.08 -0.046c-0.247,-0.143 -0.401,-0.409 -0.401,-0.694l0 -0.321c0,-0.219 0.087,-0.424 0.244,-0.576 0.157,-0.153 0.366,-0.235 0.583,-0.226 0.429,0.013 0.778,0.391 0.778,0.842l0 0.281c0,0.285 -0.154,0.551 -0.402,0.694l-0.08 0.047 0.001 0.507 0.55 0.138c-0.142,0.146 -0.23,0.344 -0.23,0.559l0 0.119 -0.5 0.111 0.013 -0.045 0.006 -0.297 -0.845 -0.493 0.364 -0.092zm0.582 -3.025l0.513 -0.512 0.451 0.293 0.087 -0.053c0.216,-0.132 0.45,-0.229 0.695,-0.288l0.098 -0.024 0.112 -0.526 0.703 0 0.111 0.526 0.099 0.024c0.245,0.058 0.478,0.156 0.695,0.288l0.086 0.053 0.451 -0.294 0.512 0.513 -0.182 0.426c-0.123,0.053 -0.238,0.128 -0.338,0.225l-0.019 0.02c-0.378,-0.601 -1.046,-0.978 -1.766,-0.978 -0.725,0 -1.394,0.382 -1.772,0.988 -0.101,-0.106 -0.221,-0.192 -0.354,-0.251l-0.18 -0.43zm0.738 0.97c0.302,-0.584 0.908,-0.957 1.568,-0.957 0.655,0 1.258,0.369 1.562,0.944 -0.077,0.153 -0.118,0.323 -0.118,0.5l0 0.321c0,0.367 0.182,0.712 0.481,0.92l0 0.077 -0.642 0.16 -0.642 -0.16 0 -0.077c0.299,-0.209 0.482,-0.554 0.482,-0.92l0 -0.281c0,-0.623 -0.489,-1.144 -1.088,-1.162 -0.307,-0.009 -0.597,0.103 -0.817,0.316 -0.22,0.214 -0.341,0.5 -0.341,0.807l0 0.321c0,0.367 0.182,0.712 0.481,0.92l0 0.077 -0.642 0.16 -0.642 -0.16 0 -0.077c0.299,-0.209 0.482,-0.554 0.482,-0.92l0 -0.281c0,-0.189 -0.046,-0.368 -0.125,-0.527zm1.81 3.057l-0.726 -0.232c-0.331,-0.106 -0.69,-0.122 -1.028,-0.047l-0.092 0.021 0 -0.048c0,-0.221 0.15,-0.413 0.365,-0.467l0.918 -0.23 0 -0.508 -0.08 -0.046c-0.247,-0.143 -0.401,-0.409 -0.401,-0.694l0 -0.321c0,-0.219 0.086,-0.424 0.244,-0.576 0.157,-0.153 0.367,-0.235 0.583,-0.226 0.429,0.013 0.778,0.391 0.778,0.842l0 0.281c0,0.285 -0.154,0.551 -0.402,0.694l-0.08 0.047 0 0.507 0.918 0.23c0.215,0.054 0.365,0.246 0.365,0.467l0 0.602 -0.04 0.02 -0.098 0 -0.986 -0.281c-0.077,-0.022 -0.157,-0.032 -0.238,-0.035zm3.126 -2.53l0 0.281c0,0.285 -0.153,0.551 -0.401,0.694l-0.08 0.047 0 0.507 0.802 0.201 -1.764 0.928 0 -0.433c0,-0.215 -0.087,-0.413 -0.23,-0.559l0.551 -0.138 0 -0.508 -0.08 -0.046c-0.248,-0.143 -0.401,-0.409 -0.401,-0.694l0 -0.321c0,-0.219 0.086,-0.424 0.243,-0.576 0.158,-0.153 0.366,-0.235 0.584,-0.226 0.429,0.013 0.777,0.391 0.777,0.842zm1.604 1.243l-0.36 0 -0.538 0.282c-0.06,-0.033 -0.123,-0.061 -0.191,-0.078l-0.676 -0.169 0 -0.077c0.299,-0.209 0.481,-0.554 0.481,-0.92l0 -0.281c0,-0.623 -0.488,-1.144 -1.087,-1.162 -0.031,-0.001 -0.061,0 -0.091,0.002l0.175 -0.411 -0.85 -0.849 -0.501 0.326c-0.19,-0.108 -0.391,-0.191 -0.6,-0.25l-0.124 -0.584 -1.222 0 -0.124 0.585c-0.209,0.058 -0.41,0.142 -0.601,0.249l-0.501 -0.326 -0.848 0.849 0.173 0.411 -0.02 -0.002c-0.307,-0.009 -0.597,0.103 -0.817,0.317 -0.22,0.213 -0.341,0.499 -0.341,0.806l0 0.321c0,0.367 0.182,0.712 0.482,0.92l0 0.077 -0.441 0.11 -0.8 -0.466 -0.525 0 0 3.323 1.578 0.526 0.308 0 0.038 -0.134 0.484 0.29c0.008,0.263 0.219,0.475 0.482,0.484 0.009,0.262 0.219,0.473 0.481,0.482 0.009,0.262 0.22,0.472 0.482,0.481 0.009,0.268 0.229,0.484 0.499,0.484 0.1,0 0.198,-0.032 0.281,-0.087l0.142 0.125c0.089,0.079 0.204,0.122 0.323,0.122l0.03 0c0.267,0 0.484,-0.216 0.488,-0.482 0.264,-0.003 0.478,-0.217 0.481,-0.481 0.264,-0.004 0.478,-0.218 0.482,-0.482 0.266,-0.007 0.482,-0.225 0.482,-0.493 0,-0.016 -0.001,-0.032 -0.003,-0.048l2.889 -1.444 0 -2.345z"/>
    <path class="fil21" d="M27.776 27.502l0 -0.364 -0.605 0 0 0.364 0.605 0zm-1.309 0l0 -0.364 -0.599 0 0 0.364 0.599 0zm0.012 -0.998l0 -0.264 -0.623 0 0 0.264 0.623 0zm0.123 3.129c0.218,-0.129 0.406,-0.293 0.564,-0.493l-1.52 0 -0.165 0.223 1.121 0.27zm-1.438 -2.131l0 -0.364 -0.605 0 0 0.364 0.605 0zm0.006 0.962l0.235 -0.323 -1.591 0 0 -1.638 1.321 0 0 -0.264 -1.55 0 0 -0.711 5.167 0 0 0.711 -1.55 0 0 0.264 1.32 0 0 1.638 -2.143 0 -0.235 0.323 2.712 0 0 0.676 -0.787 0c-0.159,0.264 -0.347,0.499 -0.587,0.699l1.209 0.288 0 0.676 -2.02 -0.476c-0.711,0.299 -1.679,0.446 -3.029,0.446l0 -0.681c0.658,0 1.209,-0.018 1.673,-0.077l-1.092 -0.258 0.453 -0.617 -1.198 0 0 -0.676 1.691 0z"/>
    <path class="fil21" d="M33.542 29.322l0 -0.464 -2.624 0 0 0.47 2.624 -0.006zm0 -1.18l0 -0.47 -2.624 0 0 0.47 2.624 0zm-3.376 0.265c-0.259,0.252 -0.552,0.476 -0.87,0.658l0 -0.963c0.57,-0.423 0.986,-0.939 1.262,-1.561l-1.162 0 0 -0.741 1.427 0c0.035,-0.147 0.07,-0.299 0.1,-0.458l0.746 0c-0.018,0.153 -0.047,0.306 -0.083,0.458l3.094 0 0 0.741 -3.311 0c-0.047,0.135 -0.106,0.27 -0.17,0.405l3.094 0 0 3.828 -0.752 0 0 -0.728 -2.624 0 0 0.728 -0.752 0 0 -2.366z"/>
    <path class="fil22" d="M39.67 28.817l0 -0.223 -0.546 0 0 0.223 0.546 0zm0 -0.64l0 -0.218 -0.546 0 0 0.218 0.546 0zm-0.575 -1.991l0 -0.164 -0.676 0 0 0.176c0.223,-0.006 0.452,-0.012 0.676,-0.012zm-0.705 2.63l0 -0.223 -0.552 0 0 0.223 0.552 0zm0 -0.64l0 -0.218 -0.552 0 0 0.218 0.552 0zm0 -0.653l0 -0.187 -1.397 0 0 0.534 -0.335 -0.182 0 3.053 -0.746 0 -0.006 -5.284 0.752 0 0 1.367 0.311 0.171 0 -0.135 1.421 0 0 -0.188c-0.412,0.006 -0.829,0.006 -1.239,0.006l0 -0.476 0.529 0 0 -0.165 -0.746 0 0 -0.528 0.746 0 0 -0.171 0.74 0 0 0.171 0.676 0 0 -0.171 0.74 0 0 0.171 0.74 0 0 0.528 -0.74 0 0 0.171 0.529 -0.018 0 0.429c-0.412,0.017 -0.829,0.029 -1.239,0.041l0 0.2 1.415 0 0 0.476 -1.415 0 0 0.187 1.297 0 0 1.727 -1.285 0 0 0.205 1.244 0 0 0.47 -1.244 0 0 0.206 1.462 0 0 0.587 -3.688 0 0 -0.587 1.474 0 0 -0.206 -1.256 0 0 -0.47 1.256 0 0 -0.205 -1.297 0 0 -1.727 1.303 0zm-3.118 -1.191l0.529 0c0,0.775 -0.029,1.509 -0.1,2.267l-0.546 0c0.088,-0.758 0.117,-1.497 0.117,-2.267z"/>
    <path class="fil22" d="M45.424 27.12l0 -0.27 -1.385 0 0 0.27 1.385 0zm0 -0.769l0 -0.265 -1.385 0 0 0.265 1.385 0zm-1.38 3.187l0.412 1.075 -0.74 0 -0.412 -1.075 0.74 0zm2.144 -1.849l-2.912 0 0 -2.178 2.912 0 0 2.178zm-3.159 1.08l2.208 0 0 -0.259 -2.09 0 0 -0.611 3.17 0 0 0.611 -0.329 0 0 0.259 0.493 0 0 0.611 -0.493 0 0 1.362 -1.291 0 0 -0.646 0.54 0 0 -0.717 -2.208 0 0 -0.611zm-1.949 -0.358c0.593,-0.341 1.003,-0.817 1.238,-1.433l0.799 0c-0.129,0.464 -0.34,0.88 -0.622,1.245l0 2.547 -0.764 0 0 -1.826c-0.2,0.141 -0.417,0.27 -0.652,0.388l0 -0.921zm0 -1.586c0.552,-0.352 0.927,-0.822 1.133,-1.408l0.757 0c-0.276,1.038 -0.903,1.814 -1.89,2.325l0 -0.916z"/>
    <path class="fil22" d="M48.153 26.873l1.568 0 0 -0.487 0.758 0 0 0.487 0.669 0 0 0.717 -0.669 0 -0.006 2.179 -1.28 0 0 -0.729 0.529 0 0 -0.493 -1.456 0.669 0 -0.781 1.456 -0.67 0 -0.176 -1.568 0 0 -0.717zm3.223 3.065l0 -3.67 -3.452 0 0 3.67 3.452 0zm0.758 0.734l-4.967 0 0 -5.137 4.967 0 0 5.137z"/>
    <path class="fil22" d="M57.259 29.939l0 -0.834 -1.303 0 0 0.834 1.303 0zm0.758 0.746l-2.818 0 0 -2.325 2.818 0 0 2.325zm-3.012 -4.797l1.221 0 0 -0.452 0.764 0 0 0.452 1.221 0 0 0.741 -1.221 0 0 0.57 1.156 0 0 0.74 -3.076 0 0 -0.74 1.156 0 0 -0.57 -1.221 0 0 -0.741zm-2.125 4.064l1.92 -0.194 0 0.758 -1.92 0.194 0 -0.758zm0.863 -4.491l0.776 0 -0.776 1.679 0.218 0.123 0.276 -0.605 0.746 0 -0.88 1.944 0.699 0 0 0.757 -1.897 0 0.629 -1.385 -0.752 -0.411 0.962 -2.102z"/>
    <path class="fil21" d="M62.367 27.719l0.37 1.433 -0.776 0 -0.37 -1.433 0.776 0zm-2.014 2.22l0 -1.291 -0.793 0 0 1.291 0.793 0zm0 -1.996l0 -1.215 -0.793 0 0 1.215 0.793 0zm-0.857 -1.938l0.076 -0.576 0.77 0 -0.076 0.576 0.822 0 0 1.391c0.27,-0.646 0.417,-1.309 0.447,-1.996l0.787 0c-0.006,0.206 -0.024,0.405 -0.047,0.605l1.673 0 0 4.738 -1.333 0 0 -0.764 0.576 0 0 -3.223 -1.05 0c-0.071,0.288 -0.159,0.564 -0.277,0.827l-0.775 0 0 3.077 -2.261 0 0 -4.656 0.67 0z"/>
    <path class="fil21" d="M67.269 28.658c-0.459,1.01 -1.245,1.697 -2.654,2.144l0 -0.841c1.227,-0.493 1.85,-1.079 2.261,-2.46l-2.255 0 0 -0.764 2.261 0 -0.006 -1.338 0.775 0 0 1.338 2.255 0 0 0.764 -2.249 0c0.412,1.38 1.033,1.967 2.261,2.46l0 0.841c-1.409,-0.447 -2.196,-1.133 -2.647,-2.144z"/>
    <path class="fil21" d="M74.895 27.296l0 -0.997 -0.781 0 0 0.997 0.781 0zm-1.514 -1.732l2.249 0 0 2.467 -2.249 0 0 -2.467zm1.344 4.491l0 -0.287 -3.182 0 0 0.287 3.182 0zm0 -0.857l0 -0.288 -3.182 0 0 0.288 3.182 0zm0.764 -0.927l0 2.425 -4.709 0 0 -2.425 4.709 0zm-4.668 -2.883l0.752 0 -0.082 0.206 1.52 0 0 0.634 -0.827 0 0 0.276 0.951 0 0 0.647 -0.874 0c0.264,0.193 0.54,0.299 0.874,0.381l0 0.694c-0.547,-0.112 -0.945,-0.265 -1.321,-0.658 -0.376,0.393 -0.77,0.546 -1.321,0.658l0 -0.694c0.335,-0.082 0.611,-0.188 0.875,-0.381l-0.875 0 0 -0.647 0.939 0 0 -0.276 -0.945 0 0.335 -0.84z"/>
    <path class="fil21" d="M81.141 29.363c0.047,0.282 0.212,0.488 0.506,0.629l0 0.752c-0.723,-0.247 -1.127,-0.699 -1.169,-1.38l0.664 0zm-2.067 -2.659l0.805 0 0 -0.159 -0.634 0 0 -0.423 0.634 0 0 -0.164 -0.716 0 0 -0.446 0.716 0 0 -0.171 0.764 0 0 0.171 0.915 0 0 0.446 -0.915 0 0 0.164 0.805 0 0 0.423 -0.805 0 0 0.159 1.004 0 0 0.452 -1.004 0 0 0.183 -0.764 0 0 -0.183 -0.805 0 0 -0.452zm0.418 2.659l0.158 0.641 -0.752 0 -0.158 -0.641 0.752 0zm-1.809 0l0.729 0 0 0.787 1.373 0 0 -0.417 0.699 0 0 1.01 -2.8 0 0 -1.38zm-1.039 -0.611l3.74 0 0 -0.199 -3.387 0 0 -0.447 3.387 0 0 -0.2 -3.681 0 0 -0.481 4.462 0 0 1.814 -4.521 0 0 -0.488zm-0.282 1.239c0.294,-0.141 0.459,-0.347 0.506,-0.629l0.663 0c-0.041,0.682 -0.446,1.133 -1.168,1.38l0 -0.752zm0 -3.288l1.004 0 0 -0.159 -0.805 0 0 -0.423 0.805 0 0 -0.164 -0.916 0 0 -0.446 0.916 0 0 -0.171 0.764 0 0 0.171 0.716 0 0 0.446 -0.716 0 0 0.164 0.634 0 0 0.423 -0.634 0 0 0.159 0.804 0 0 0.452 -0.804 0 0 0.183 -0.764 0 0 -0.183 -1.004 0 0 -0.452z"/>
    <path class="fil21" d="M56.978 35.728l0 -0.364 -0.605 0 0 0.364 0.605 0zm-1.309 0l0 -0.364 -0.599 0 0 0.364 0.599 0zm0.012 -0.998l0 -0.264 -0.623 0 0 0.264 0.623 0zm0.123 3.129c0.218,-0.129 0.406,-0.293 0.564,-0.493l-1.52 0 -0.165 0.223 1.121 0.27zm-1.438 -2.131l0 -0.364 -0.605 0 0 0.364 0.605 0zm0.006 0.962l0.235 -0.323 -1.591 0 0 -1.638 1.321 0 0 -0.264 -1.55 0 0 -0.711 5.167 0 0 0.711 -1.55 0 0 0.264 1.32 0 0 1.638 -2.143 0 -0.235 0.323 2.712 0 0 0.676 -0.787 0c-0.159,0.264 -0.347,0.499 -0.587,0.699l1.209 0.288 0 0.675 -2.02 -0.475c-0.711,0.299 -1.679,0.446 -3.029,0.446l0 -0.681c0.658,0 1.209,-0.018 1.673,-0.077l-1.092 -0.258 0.453 -0.617 -1.198 0 0 -0.676 1.691 0z"/>
    <path class="fil21" d="M62.744 37.548l0 -0.464 -2.624 0 0 0.47 2.624 -0.006zm0 -1.18l0 -0.47 -2.624 0 0 0.47 2.624 0zm-3.376 0.265c-0.259,0.252 -0.552,0.475 -0.869,0.658l0 -0.963c0.57,-0.423 0.986,-0.939 1.262,-1.562l-1.162 0 0 -0.74 1.427 0c0.035,-0.147 0.07,-0.299 0.1,-0.458l0.746 0c-0.018,0.153 -0.047,0.305 -0.083,0.458l3.094 0 0 0.74 -3.311 0c-0.047,0.136 -0.106,0.271 -0.17,0.406l3.094 0 0 3.828 -0.752 0 0 -0.728 -2.624 0 0 0.728 -0.752 0 0 -2.366z"/>
    <path class="fil22" d="M68.267 38.177l0 -0.371 -0.387 0 0 0.371 0.387 0zm0.464 -2.648l0 -0.264 -1.315 0 0 0.264 1.315 0zm-1.444 1.662l1.574 0 0 1.602 -1.574 0 0 -1.602zm-0.623 -2.524l2.818 0 0 1.461 -2.818 0 0 -1.461zm3.1 4.303l-0.687 0 0 -2.014 -2.008 0 0 2.014 -0.688 0 0 -2.66 3.382 0 0 2.66zm-3.423 -5.132l1.351 0 0 -0.211 0.763 0 0 0.211 1.35 0 0 0.646 -3.464 0 0 -0.646zm-1.896 2.607l0.611 -0.153 0 -1.08 -0.552 0 0 -0.74 0.552 0 0 -0.817 0.763 0 0 0.817 0.471 0 0 0.74 -0.471 0 0 0.887 0.476 -0.123 0 0.816 -0.476 0.124 0 2.055 -1.215 0 0 -0.711 0.453 0 0 -1.151 -0.611 0.153 0 -0.816z"/>
    <path class="fil22" d="M72.618 35.792l1.18 0c0.264,-0.393 0.47,-0.81 0.611,-1.256l-1.544 0 0 -0.763 2.541 0c-0.147,0.74 -0.387,1.414 -0.746,2.019l1.08 0 0 0.764 -1.127 0 0 2.414 -1.591 0 0 -0.764 0.852 0 0 -1.65 -1.256 0 0 -0.764zm-1.074 1.227c0.176,-0.534 0.282,-1.127 0.317,-1.908l-0.493 0 -0.23 1.62 0.406 0.288zm0.311 1.151c-0.129,0.252 -0.276,0.517 -0.446,0.799l-0.928 0c0.306,-0.447 0.559,-0.84 0.758,-1.233l-0.88 -0.623 0.294 -2.002 -0.312 0 0 -0.764 0.423 0 0.1 -0.664 0.811 0 -0.088 0.664 0.986 0c0,1.286 -0.071,2.173 -0.411,3.112l0.311 0.223 0 0.921 -0.617 -0.434z"/>
    <path class="fil22" d="M77.355 35.1l1.568 0 0 -0.487 0.758 0 0 0.487 0.669 0 0 0.717 -0.669 0 -0.006 2.178 -1.28 0 0 -0.728 0.529 0 0 -0.493 -1.456 0.669 0 -0.781 1.456 -0.67 0 -0.176 -1.568 0 0 -0.717zm3.223 3.065l0 -3.67 -3.452 0 0 3.67 3.452 0zm0.758 0.734l-4.967 0 0 -5.137 4.967 0 0 5.137z"/>
    <path class="fil22" d="M86.461 38.165l0 -0.833 -1.303 0 0 0.833 1.303 0zm0.758 0.746l-2.818 0 0 -2.325 2.818 0 0 2.325zm-3.012 -4.797l1.221 0 0 -0.452 0.764 0 0 0.452 1.221 0 0 0.741 -1.221 0 0 0.569 1.156 0 0 0.741 -3.076 0 0 -0.741 1.156 0 0 -0.569 -1.221 0 0 -0.741zm-2.125 4.064l1.92 -0.194 0 0.758 -1.92 0.193 0 -0.757zm0.862 -4.492l0.776 0 -0.776 1.68 0.218 0.123 0.276 -0.605 0.746 0 -0.88 1.943 0.699 0 0 0.758 -1.897 0 0.629 -1.385 -0.752 -0.411 0.962 -2.103z"/>
    <path class="fil21" d="M91.569 35.945l0.37 1.433 -0.776 0 -0.37 -1.433 0.776 0zm-2.014 2.22l0 -1.292 -0.793 0 0 1.292 0.793 0zm0 -1.997l0 -1.215 -0.793 0 0 1.215 0.793 0zm-0.857 -1.937l0.076 -0.576 0.77 0 -0.076 0.576 0.822 0 0 1.391c0.27,-0.646 0.417,-1.309 0.446,-1.996l0.788 0c-0.006,0.205 -0.024,0.405 -0.047,0.605l1.673 0 0 4.738 -1.333 0 0 -0.764 0.576 0 0 -3.223 -1.05 0c-0.071,0.288 -0.159,0.564 -0.277,0.827l-0.775 0 0 3.076 -2.261 0 0 -4.655 0.67 0z"/>
    <path class="fil21" d="M96.471 36.885c-0.459,1.01 -1.245,1.697 -2.654,2.143l0 -0.84c1.227,-0.493 1.85,-1.08 2.261,-2.46l-2.255 0 0 -0.764 2.261 0 -0.006 -1.338 0.775 0 0 1.338 2.255 0 0 0.764 -2.249 0c0.411,1.379 1.033,1.967 2.261,2.46l0 0.84c-1.409,-0.446 -2.196,-1.132 -2.647,-2.143z"/>
    <path class="fil21" d="M103.715 37.225c-0.235,-0.729 -0.429,-1.468 -0.605,-2.237l-0.399 0 0 2.237 1.003 0zm-1.755 0l0 -2.237 -0.4 0c-0.176,0.769 -0.37,1.508 -0.605,2.237l1.004 0zm1.82 0.188l0 0.564 -1.068 0 0 0.992 -0.752 0 0 -0.992 -1.068 0 0 -0.564c-0.141,0.417 -0.3,0.834 -0.47,1.244l-0.817 0c0.523,-1.238 0.916,-2.46 1.192,-3.669l-0.969 0 0 -0.764 2.132 0 0 -0.599 0.752 0 0 0.599 2.131 0 0 0.764 -0.968 0c0.276,1.209 0.67,2.431 1.191,3.669l-0.815 0c-0.17,-0.411 -0.329,-0.828 -0.47,-1.244z"/>
    <path class="fil21" d="M109.791 37.689l0 -0.211 -1.156 0 0 0.211 1.156 0zm0 -0.793l0 -0.229 -1.156 0 0 0.223 1.156 0.006zm-0.106 -1.462l0 -0.276 -1.05 0 0 0.276 1.05 0zm-1.832 0l0 -0.276 -1.127 0 0 0.276 1.127 0zm0 -1.573l0 -0.294 0.782 0 0 0.294 2.155 0 0 0.617 -2.155 0 0 0.199 1.796 0 0 1.251 -1.796 0 0 0.199 1.89 0 0 0.723 0.441 0.006 0 0.67 -0.441 0 0 0.704 -1.89 0 0 0.799 -1.597 0 0 -0.587 0.816 0 0 -0.212 -2.113 0 0 -0.54 2.113 0 0 -0.211 -2.407 0 0 -0.594 2.407 0.006 0 -0.223 -2.113 0 0 -0.541 2.113 0 0 -0.199 -1.873 0 0 -1.251 1.873 0 0 -0.199 -2.231 0 0 -0.617 2.231 0z"/>
   </g>
  </g>
 </g>
</svg>