<?xml version="1.0" encoding="UTF-8"?>
<!DOCTYPE svg PUBLIC "-//W3C//DTD SVG 1.1//EN" "http://www.w3.org/Graphics/SVG/1.1/DTD/svg11.dtd">
<!-- Creator: CorelDRAW -->
<svg xmlns="http://www.w3.org/2000/svg" xml:space="preserve" width="492.1mm" height="250.2mm" version="1.1" style="shape-rendering:geometricPrecision; text-rendering:geometricPrecision; image-rendering:optimizeQuality; fill-rule:evenodd; clip-rule:evenodd"
viewBox="0 0 23854.53 12128.43"
 xmlns:xlink="http://www.w3.org/1999/xlink"
 xmlns:xodm="http://www.corel.com/coreldraw/odm/2003">
 <defs>
  <style type="text/css">
   <![CDATA[
    .str1 {stroke:#FEFEFE;stroke-width:51.3;stroke-miterlimit:22.9256}
    .str2 {stroke:#FEFEFE;stroke-width:9.69;stroke-miterlimit:22.9256}
    .str0 {stroke:#332C2B;stroke-width:9.69;stroke-miterlimit:22.9256}
    .fil7 {fill:none}
    .fil1 {fill:#C9CACA}
    .fil12 {fill:#5F5D5D}
    .fil0 {fill:#FFFDED}
    .fil4 {fill:#DD7E23}
    .fil2 {fill:#C9A381}
    .fil5 {fill:#0F876D}
    .fil10 {fill:#0663AE}
    .fil3 {fill:#0064AF}
    .fil11 {fill:#F9FAFC}
    .fil8 {fill:#FEFEFE;fill-rule:nonzero}
    .fil6 {fill:#DD7E23;fill-rule:nonzero}
    .fil9 {fill:#0663AE;fill-rule:nonzero}
   ]]>
  </style>
 </defs>
 <g id="图层_x0020_1">
  <metadata id="CorelCorpID_0Corel-Layer"/>
  <polygon class="fil0 str0" points="3878,4.85 23849.68,4.85 23849.68,12123.59 3878,12123.59 "/>
  <polygon class="fil1" points="0,4.85 3878,4.85 3878,12123.59 0,12123.59 "/>
  <polygon class="fil0" points="-0,4.85 3878,4.85 3878,12123.59 -0,12123.59 "/>
  <polygon class="fil2" points="23.68,4.85 363,4.85 363,12123.59 23.68,12123.59 "/>
  <polygon class="fil2" points="3538.67,4.85 3878,4.85 3878,12123.59 3538.67,12123.59 "/>
  <path class="fil3" d="M1527.34 4470.64l0 -4465.79c149.03,0 298.06,0 447.09,0l0 4465.79 -447.09 0z"/>
  <polygon class="fil3" points="1514.63,12123.59 1514.63,7273.98 1734.94,7273.98 1734.94,12123.59 "/>
  <path class="fil4" d="M1831.89 12123.59l0 -3024.6 26.91 0c101.16,0 183.68,82.51 183.68,183.68l0 2840.93 -210.59 0z"/>
  <polygon class="fil5" points="2129.95,12123.59 2129.95,8101.8 2228.77,8017.04 2340.54,8101.8 2340.54,12123.59 "/>
  <polygon class="fil5" points="2129.13,4338.8 2129.13,4.85 2368.88,4.85 2368.88,4338.8 "/>
  <path class="fil6" d="M2129.13 7996.82l0 -105.51 114.61 -117.23 114.61 117.23 0 105.51 -114.61 -117.24 -114.61 117.24zm0 -173.39l0 -105.51 114.61 -117.23 114.61 117.23 0 105.51 -114.61 -117.23 -114.61 117.23zm0 -173.39l0 -105.51 114.61 -117.23 114.61 117.23 0 105.51 -114.61 -117.23 -114.61 117.23z"/>
  <polygon class="fil4" points="900.12,2817.6 2977.87,2817.6 2977.87,4895.35 900.12,4895.35 "/>
  <polygon class="fil4" points="900.12,5137.73 2977.87,5137.73 2977.87,7215.49 900.12,7215.49 "/>
  <polygon class="fil7 str1" points="1083.11,3000.59 2794.88,3000.59 2794.88,4712.36 1083.11,4712.36 "/>
  <polygon class="fil7 str1" points="1083.11,5320.73 2794.88,5320.73 2794.88,7032.49 1083.11,7032.49 "/>
  <path class="fil8" d="M1889.33 4358.76l568.88 0 0 -144.48 -436.82 0 0 -486.48 74.5 -21.45 0 415.37 129.8 0 0 -452.62 71.11 -20.32 0 472.94 132.06 0 0 -661.44 -203.17 58.69 0 -172.7 -129.8 0 0 209.95 -74.5 21.45 0 -181.72 -132.06 0 0 218.97 -73.37 21.45 0 150.12 73.37 -21.45 0 593.71zm-469.55 -185.11l220.1 -33.86 0 -138.83 -220.1 33.86 0 138.84zm11.28 -671.6l46.28 0 -44.02 413.12 239.29 0 0 308.14 -117.39 0 0 143.35 252.84 0 0 -585.81 -49.67 0 34.99 -418.76 -362.33 0 0 139.96zm133.19 278.8l28.22 -278.8 66.59 0 -24.83 278.8 -69.98 0z"/>
  <path class="fil8" d="M1564.25 6688.49l258.48 0 0 -581.3 -51.92 0 40.63 -418.76 -376.99 0 0 135.45 49.66 0 -46.28 413.11 247.19 0 0 312.66 -120.78 0 0 138.83zm-141.09 -193.01l223.49 -33.86 0 -134.32 -223.49 33.86 0 134.32zm146.74 -388.28l29.35 -283.31 74.5 0 -28.22 283.31 -75.63 0zm272.02 200.91l98.2 0 -33.86 176.09 354.42 0 -4.52 69.98 -128.67 0 0 134.32 258.48 0 20.32 -328.46 -335.23 0 9.03 -51.92 374.74 0 0 -130.93 -612.9 0 0 130.93zm34.99 -178.34l553.08 0 0 -414.24 -208.82 0 0 -50.79 -137.7 0 0 50.79 -206.56 0 0 414.24zm129.81 -106.1l0 -54.18 83.53 0 0 54.18 -83.53 0zm0 -147.86l0 -54.18 83.53 0 0 54.18 -83.53 0zm207.69 147.86l0 -54.18 85.78 0 0 54.18 -85.78 0zm0 -147.86l0 -54.18 85.78 0 0 54.18 -85.78 0z"/>
  <path class="fil9" d="M12866.59 3733.16l-124.07 214.29 508.95 0 -18.33 133.94 -568.16 0 -31.01 53.57 524.46 0 -33.84 241.08 -204.43 149.44 272.1 222.75 -289.02 0 -138.16 -111.38 -153.67 111.38 -289.02 0 305.94 -221.35 -149.44 -121.24 -197.38 342.59 -267.86 0 383.47 -666.85 -262.23 0 18.33 -133.94 69.08 -122.65 -32.42 -38.07 294.65 0 -90.23 160.72 80.36 0 102.92 -177.64 -32.43 -36.66 321.44 0zm363.73 173.41l-241.08 0 -32.42 -146.62 241.08 0 32.42 146.62zm-658.39 335.54l-22.56 40.88 133.93 0 -5.64 42.29 105.73 87.41 121.25 -87.41 11.28 -83.18 -344 0zm1834.18 -160.72l305.93 0 -80.36 572.39c-4.7,27.25 -17.63,49.58 -38.77,66.96 -21.15,17.39 -45.35,26.08 -72.61,26.08l-224.16 0 109.97 -117.02 59.21 -414.49 -23.97 0 -180.46 531.5 -186.1 0 180.46 -531.5 -36.66 0 -180.46 531.5 -181.87 0 180.46 -531.5 -32.42 0 18.33 -133.93 403.21 -187.51 -377.83 0 18.33 -133.93 664.02 0 -26.79 187.51 -297.47 133.94zm-834.61 534.32l25.38 -183.28 -90.23 23.97 21.15 -148.03 90.23 -23.97 35.25 -256.59 -86 0 19.74 -133.94 86 0 16.92 -119.83 -26.79 -40.89 266.46 0 -22.56 160.72 107.14 0 -19.74 133.94 -107.14 0 -26.79 190.33 111.38 -29.61 -21.15 148.03 -111.38 29.6 -39.47 287.61c-4.7,27.25 -15.51,49.58 -32.42,66.96 -16.92,17.39 -36.19,26.08 -57.8,26.08l-243.9 0 105.74 -131.12zm1569.13 -803.6l-45.12 -53.57 1091.2 0 -59.21 422.95 -391.93 0 -14.1 105.73 377.83 0 -21.15 145.21 -377.83 0 -21.14 152.26 461.01 0 -19.74 138.16 -696.45 0 -208.66 -77.54 -33.84 101.51 -238.26 0 174.82 -504.72 232.62 0 -81.77 243.9 132.52 49.34 49.34 -353.86 -362.32 0 52.16 -369.37zm755.66 70.49l-492.03 0 -23.97 174.82 492.03 0 23.97 -174.82zm1058.78 862.81l111.38 -126.88 83.18 -590.72 -260.81 0 19.73 -133.94 259.41 0 15.51 -107.14 -40.88 -52.16 269.28 0 -22.56 159.31 265.05 0 -19.74 133.94 -263.64 0 -87.41 628.78c-4.7,27.26 -15.98,48.88 -33.84,64.85 -17.86,15.98 -39.01,23.97 -63.44,23.97l-231.21 0zm-391.93 -621.73l33.84 -239.67 -64.85 0 16.92 -125.48 341.18 0 -16.92 125.48 -63.44 0 -33.84 239.67 67.67 0 -21.14 142.39 -66.27 0 -36.65 263.64 63.44 -12.69 -18.33 136.75 -358.09 69.08 18.33 -133.93 76.13 -15.51 42.29 -307.34 -70.49 0 21.15 -142.39 69.08 0zm229.8 569.57l109.97 -328.49 181.87 0 -109.97 328.49 -181.87 0zm593.54 1.41l-49.35 -328.49 181.87 0 49.34 328.49 -181.86 0zm-38.07 -400.39l78.95 -214.29 181.86 0 -78.95 214.29 -181.87 0zm-435.63 0l-19.74 -214.29 181.87 0 19.74 214.29 -181.87 0zm528.68 -437.05l-11.28 -101.51 198.79 0 11.28 101.51 -198.79 0zm1302.67 886.78l66.26 -77.54 7.05 -50.75 -239.67 0 -18.33 128.29 -187.51 0 74.72 -531.5 616.09 0 -62.03 438.46c-3.76,27.26 -12.69,49.58 -26.79,66.97 -14.1,17.39 -34.31,26.08 -60.62,26.08l-169.18 0zm-59.21 -809.24l5.64 -40.89 -225.57 0 14.1 -108.55 224.16 0 -36.66 -49.34 262.23 0 -7.05 49.34 226.98 0 -14.1 108.55 -228.39 0 -5.64 40.89 228.39 0 -15.51 107.14 -226.98 0 -5.64 39.48 226.98 0 -15.51 107.14 -668.25 0 15.51 -107.14 225.57 0 5.64 -39.48 -225.57 0 15.51 -107.14 224.16 0zm-617.5 280.55l-153.67 0 18.33 -133.93 155.08 0 40.88 -290.42 -16.92 -56.4 201.61 0 -49.35 346.82 133.94 0 -18.33 133.93 -135.34 0 -74.72 531.5 -176.23 0 74.72 -531.5zm272.1 480.75l-115.61 0 29.61 -442.69 119.83 0 -33.84 442.69zm-404.62 -442.69l109.97 0 -88.82 442.69 -109.97 0 88.82 -442.69zm525.86 -468.06l-62.03 269.28 -115.61 0 60.62 -269.28 117.01 0zm-373.6 1.41l-12.69 267.87 -111.38 0 11.28 -267.87 112.79 0zm524.46 587.89l239.67 0 7.05 -52.16 -239.67 0 -7.05 52.16zm-21.15 146.62l239.67 0 7.05 -52.16 -239.67 0 -7.05 52.16zm1442.25 15.51l-239.67 0 97.28 -695.04 239.67 0 8.46 -53.57 -29.61 -53.57 252.36 0 -15.51 107.15 243.9 0 -97.28 695.04 -245.31 0 -29.61 210.07 -214.29 0 29.61 -210.07zm-279.14 31.02l-78.95 -88.82 -38.07 267.87 -214.29 0 46.53 -329.9 -131.12 0 284.79 -382.06 -217.11 0 16.92 -126.88 415.9 0 -22.56 167.77 -104.32 138.16 -1.41 16.92 78.95 88.82 -35.25 248.13zm45.11 -689.41l-222.75 0 -29.6 -108.55 -31.01 -33.84 248.13 0 35.24 142.39zm252.36 528.68l22.56 -166.36 -56.39 0 -22.56 166.36 56.4 0zm269.27 0l22.56 -166.36 -53.57 0 -23.97 166.36 54.98 0zm-286.19 -286.19l56.39 0 21.15 -143.8 -56.4 0 -21.14 143.8zm291.83 -143.8l-19.74 143.8 53.57 0 21.14 -143.8 -54.98 0z"/>
  <path class="fil6" d="M14535.54 5673.28l-63.44 0 -23.97 166.36 136.75 -19.74 -18.33 133.93 -382.06 50.76 46.53 -331.31 -88.82 0 -64.85 331.31 -267.87 0 181.87 -937.53 -43.71 -50.75 1125.04 0 -40.88 294.66 -819.11 0 -47.94 241.08 135.35 0 8.46 -53.57 -107.15 0 15.51 -107.15 105.74 0 8.46 -53.57 214.29 0 -8.46 53.57 160.72 0 8.46 -53.57 214.29 0 -8.46 53.57 108.55 0 -15.51 107.15 -107.14 0 -8.46 53.57 162.13 0 -16.92 121.25 -256.59 0 40.88 64.85 184.68 -39.48 -18.33 133.94 -93.05 19.73 97.28 152.26 -242.49 0 -211.47 -331.31zm-300.29 -482.16l545.6 0 7.05 -54.99 -542.78 0 -9.87 54.99zm279.15 360.91l160.72 0 8.46 -53.57 -160.72 0 -8.46 53.57zm1106.71 452.56l125.47 -131.12 63.44 -455.37 -428.58 0 19.73 -133.93 1125.04 0 -19.74 133.93 -428.59 0 -69.08 493.44c-3.76,27.26 -15.98,49.58 -36.65,66.97 -20.68,17.39 -44.65,26.08 -71.9,26.08l-279.14 0zm861.4 -988.29l-18.33 133.93 -964.32 0 18.33 -133.93 964.32 0zm-57.8 508.95l40.88 375.01 -241.08 0 -53.57 -375.01 253.77 0zm-735.93 0l-160.72 375.01 -241.08 0 160.72 -375.01 241.08 0zm2186.63 -53.57l-57.8 413.08c-3.76,27.25 -16.21,50.05 -37.36,68.37 -21.15,18.33 -44.88,27.49 -71.2,27.49l-225.57 0 94.46 -100.1 4.23 -33.84 -535.74 0 -18.32 132.52 -241.08 0 70.49 -507.53 1017.89 0zm-604.81 -267.87l2.82 -26.79 -400.39 0 14.1 -107.14 401.8 0 4.23 -26.79 -46.53 -53.57 321.44 0 -11.28 80.36 401.8 0 -14.1 107.14 -403.21 0 -4.23 26.79 349.64 0 -15.51 107.15 -348.22 0 -4.23 26.79 430 0 -15.51 107.14 -1125.04 0 15.51 -107.14 427.18 0 4.23 -26.79 -375.01 0 15.51 -107.15 375.01 0zm-190.33 401.8l535.74 0 4.23 -26.79 -535.73 0 -4.23 26.79zm-18.32 133.94l535.73 0 2.82 -26.79 -535.74 0 -2.82 26.79zm1550.8 -518.82l32.42 -39.47 -279.14 0 15.51 -108.55 349.64 0 43.71 -53.57 -23.97 -28.2 301.7 0 -64.85 81.77 445.5 0 -15.51 108.55 -517.4 0 -31.01 39.47 511.76 0 -15.51 109.97 -585.08 0 -31.01 39.48 671.07 0 -15.51 107.14 -122.66 0 135.34 205.83 -125.47 0 -43.71 307.34 -940.35 0 43.71 -310.16 -107.14 0 162.13 -203.01 -118.42 0 15.51 -107.14 188.92 0 32.42 -39.48 -152.26 0 15.51 -109.97 224.16 0zm-8.46 331.31l490.62 0 -47.93 -74.72 -383.47 0 -59.21 74.72zm-56.4 166.36l537.14 0 8.46 -53.57 -537.14 0 -8.46 53.57zm514.59 159.31l7.05 -53.57 -537.14 0 -7.05 53.57 537.14 0zm1287.17 -338.36l16.92 -118.42 -274.92 0 18.33 -133.94 274.92 0 16.92 -125.47 -249.54 5.64 19.74 -133.94 772.58 -19.73 -18.32 133.93 -265.05 7.05 -18.33 132.52 294.65 0 -18.33 133.94 -294.65 0 -16.92 118.42 267.86 0 -62.03 438.46 -782.45 0 62.03 -438.46 256.59 0zm-683.76 465.24l132.53 -398.98 232.62 0 -132.52 398.98 -232.62 0zm140.98 -452.56l-18.33 -241.08 232.62 0 18.33 241.08 -232.62 0zm40.88 -294.65l-18.33 -241.08 232.62 0 18.33 241.08 -232.62 0zm745.79 590.72l25.38 -174.82 -300.29 0 -25.38 174.82 300.29 0zm1270.25 -644.29l513.18 0 -98.69 707.73c-4.7,27.26 -17.63,49.58 -38.77,66.97 -21.15,17.39 -44.88,26.08 -71.2,26.08l-279.15 0 126.89 -131.12 74.72 -535.73 -298.88 0 -358.09 666.85 -267.87 0 358.09 -666.85 -290.42 0 18.33 -133.94 344 0 94.46 -176.23 -32.43 -38.07 321.44 0 -115.61 214.29z"/>
  <path class="fil10" d="M10038.9 7062.65l112.73 10.94 -403.54 -756.66c-34.82,20.96 -67.63,52.6 -98.85,78.01 -30.49,24.83 -60.23,47.32 -96.61,76.83l-578.42 472.66c27.49,6.59 45.2,10.01 72.48,16.45 32.79,7.74 39.46,7.04 60.6,21.84 -200.83,371.77 -395.8,607.86 -779.87,813.15 -370.67,198.14 -870.06,276.71 -1337.75,156.91 -871.96,-223.36 -1338.86,-870.67 -1512.23,-1687.09 -18.36,262.88 81.73,641.16 171.33,849.66 210.57,490.06 520.7,813.21 969.39,1085.03 739.25,447.85 1772.21,367.73 2441.22,-56.1 239.92,-151.99 399.44,-288.62 559.6,-468.08 165.05,-184.94 201.28,-248.45 325.72,-453.32 31.98,-52.64 52.05,-121.61 94.2,-160.22z"/>
  <path class="fil4" d="M8748.45 3610.46l-710.87 2.98c65.38,72.78 166.99,144.14 243.89,209.25 89.5,75.78 160.28,134.28 246.57,210.26 -9.3,52.01 -176.57,382.88 -209.51,420.01 -205.76,-77.37 -348.28,-136.54 -600.11,-165.43 -454.8,-52.17 -876.71,60.38 -1243.32,290.39 -687.02,431.04 -1029.7,1328.32 -704.29,2138.77 68.12,169.65 185.68,386.2 295.88,484.74 -32.22,-70.09 -83.83,-148.05 -122.53,-225.3 -221.48,-442.17 -208.6,-1009.1 3.61,-1453.11 201.84,-422.33 664.34,-828.02 1131.23,-1009.04 176.82,-68.56 378.97,-110.4 595.94,-114.49 173.84,-3.27 487.87,33.58 617.68,103.77l-90.91 198.56c59.63,-23.64 190.43,-123.43 221.7,-131.91 55.7,-15.1 186.67,85.64 243.41,107.97 -39.12,-50.5 -124.92,-108.07 -190.19,-132.9 37.32,-44.87 337.8,-229.89 371.74,-248.26l499.85 409.06 -95.24 -660.53c26.12,-33.22 568.7,-382.41 643.6,-426.92l-710.37 -5.56 -96.6 -665.63 -341.15 663.32z"/>
  <path class="fil11" d="M8373.8 5092.4c11.4,2.67 22.56,7.3 33.01,13.94 40.37,25.67 77.29,54.13 113.22,83.97 31.19,-26.44 74.44,-32.45 112.62,-14.39 44.97,21.28 99.88,68.15 138.51,100.37 34.05,28.4 67.48,57.5 100.83,86.72 85.21,74.67 127.72,180.24 169.19,282.68 25.06,61.91 55.06,130.1 43.8,198.27 -9,54.46 -47.23,110.27 -71.91,159.89 -42.8,86.03 -87.79,200.5 -146.66,274.41 -21.8,27.37 -52.64,41.29 -87.59,39.55 -34.95,-1.75 -64.24,-18.68 -83.2,-48.09l-133.31 -206.79 -147.8 17.9c-16.27,15.89 -37.6,26.13 -61.52,28.77 -32.58,8.85 -126.95,57.74 -165.13,84.88l-168.19 522.77c8.59,25.41 32.95,68.95 42.47,87.1 16.26,31 33.93,64.41 46.91,98.44 12.06,9.72 22.07,22.25 29.05,37 13.69,18.76 45.92,46.83 62.48,61.99 14.36,13.15 30.32,27 46.02,41.22 42.59,-15.21 86.27,-33.02 125.71,-48.43 36.02,-14.07 72.01,-28.48 107.52,-43.78 16.89,-7.29 41.15,-16.98 56.82,-26.68 40.53,-29.62 67.35,-49.25 112.87,-72.79 25.67,-13.27 53.94,-15.49 79.69,-7.31 10.69,-19.99 22.24,-39.36 35.88,-56.96 40.81,-52.66 94.61,-83.12 154.75,-109.15 37.31,-16.15 77.78,-10.35 109.05,15.62 31.28,25.97 44.4,64.69 35.38,104.33 -35.86,157.5 -138.84,316.06 -230.58,447.12 -85.93,122.75 -205.74,235.69 -323.91,327.33 -556.95,431.93 -1389.58,455.29 -1959.01,32.54 -444.09,-329.7 -702.76,-818.93 -691.45,-1374.98 9.6,-472.31 220.91,-950.04 597.6,-1242.95 447.72,-348.14 954.19,-465.81 1506.51,-313.66 125.49,34.57 143.78,52.1 238.41,131.27 59.28,49.6 121.16,93.08 171.49,152.83 31.85,37.82 33.45,90.98 3.93,130.65 -1.12,1.5 -2.26,2.96 -3.44,4.38z"/>
  <path class="fil12" d="M8043.04 6985.04c-0.01,43.31 89.02,172.31 101.83,243.96 -86.05,84.54 -144.39,180.22 -224.99,266.73 -70.44,75.62 -249.93,78 -364.9,110.72 230.97,28.08 223.3,-53.02 492.41,4.59 -254.05,147.27 -873.19,133.07 -1077.02,1.16 195.63,-51.16 296.55,17.92 493.18,-3.38 -114.08,-50.45 -295.85,-30.98 -372.22,-121.15 -71.54,-84.46 -145.87,-190.4 -224.66,-260.76l105.15 -228.85c-54.25,26.56 -51.22,39.96 -93.98,86.78 -28.09,30.76 -54.1,49.14 -80.16,79.09 -59.27,-18.9 -304.51,-108.75 -347.86,-136.07 -75.06,-47.31 -139.67,-229.54 -201.74,-283.43 32.04,176.23 136.44,229.05 140.25,442.86 -212.68,-197.57 -371.07,-689.5 -333.06,-1024.85 73.5,78.98 63.88,108.54 87.93,230.82 16.78,85.33 34.33,178.55 69.69,241.09 -3.25,-109.66 -60.4,-322.47 -2.34,-414.83l189.85 -268.85 254.24 30.58c-31.56,-8.79 -182.96,-97.86 -225.94,-119.9 3.16,-85.24 7.34,-361.18 35.86,-415.28 47.38,-89.87 159.92,-178.7 207.53,-251.09 -146.99,73.95 -247.53,251.28 -393.83,289.2 107.15,-222.66 533.8,-589.11 871.58,-634.45 -134.76,175.77 -282.83,159.55 -392.9,284.76 73.62,-25.21 266.68,-127.25 342.4,-117.15 99.43,13.25 258.65,68.67 364.52,92.89l39.61 220.15c9.76,24.48 2.39,11.29 14.84,25.89l33.83 -245.31c81.84,-16.98 323.65,-95.61 383.12,-95.58 57.92,0.02 296.49,103.58 341.45,135.73 -120.89,-141.67 -280.91,-128.81 -409.06,-301.07 161.26,20.14 300.02,120.92 425.16,175.15 -43.83,-52.04 -105.53,-95.58 -158.52,-139.91 -78.97,-66.07 -79.98,-77.78 -198.82,-110.51 -537.37,-148.02 -1007.04,-21.14 -1413.96,295.28 -674.53,524.51 -841.41,1757.37 91.98,2450.33 532.82,395.58 1312.55,371.46 1831.77,-31.2 108.45,-84.1 223.45,-192.03 302.19,-304.52 74.08,-105.83 181.17,-265.14 214.18,-410.13 -123.43,53.43 -121.73,89.7 -179.57,197.45 -38.8,72.28 -102.03,173.61 -155.38,216.15 8.27,-140.65 30.69,-139.95 71.17,-243.28 -50.01,25.87 -50.41,28.69 -100.31,65.15 -42.69,31.19 -332.65,139.47 -379.49,153.04 -31.15,-37.05 -160.25,-138.99 -175.02,-177.97zm-22.81 -14.14c-17.46,-77.54 -111.52,-202.45 -108.2,-262.81l183.77 -571.19c17.28,-31.95 203.32,-129.87 245.21,-131.89 -63.21,-48.58 -220.3,58.01 -307.51,-3.52l-443.62 -324.05c-55.47,-43.65 -74.32,-260.79 -71.9,-294.55 -55.49,68.44 -16.81,229.6 -84.85,289.59 -27.48,24.23 -71.25,50.06 -107.66,77.86 -40.48,30.9 -76.67,56.67 -114.34,83.89 -77.39,55.93 -146.95,108.26 -221.34,162.36 -90.76,66.01 -152.29,-9.8 -314.14,-3.66 34.92,19.47 223.52,114.56 235.41,128.35l191.83 577.13c9.86,64.68 -82.69,198.89 -106.02,265 260,-202.55 30.49,-181.76 504.79,-181.76 80.86,0 276.72,-20.66 335.61,10.31 14.68,7.72 164.24,155.65 182.96,178.94zm344.41 -990.05l250.42 -30.34 169.01 262.17c43.48,-54.58 101.98,-189.82 134.76,-255.72 69.08,-138.85 88.32,-114.85 24.79,-271.78 -39.51,-97.59 -75.29,-185.44 -140.99,-243.01 -48.5,-42.5 -171.58,-150.57 -214.99,-171.11 49.21,72.95 113.47,127.41 150.55,214.55 -118.88,-29.21 -127.24,-77.98 -198.1,-139.31 -59,-51.05 -118.08,-105.58 -189.75,-151.15l22.02 33.68c59.79,73.2 113.71,114.64 181.02,215.11 51.48,76.85 34.47,305.75 37.01,420.95 -65.59,22.12 -182.53,105.56 -225.74,115.95z"/>
  <path class="fil4" d="M7341.1 3282.59l-516.34 1.9c114.02,107.53 244.32,197.87 355.28,307l-237.65 484.69c106.73,-39.06 366.95,-246.1 472.64,-289.6 46.25,26.61 138.22,110.43 179.65,145.34l181.98 145.93 -68.87 -485.56c78.23,-57.74 157.74,-103.16 235.15,-153.08 76.14,-49.1 178.4,-95.79 230.89,-155.2l-513.63 0.24 -71.27 -484.48 -247.83 482.83z"/>
  <path class="fil4" d="M6386.54 3712.45l-360.79 -1.03c46.68,76.31 195.97,144.48 249.66,230.67l-171.25 334.59 331.89 -207.85c89.82,59.22 177.98,162.63 262.44,207l-48.37 -337.74c63.12,-63.72 275.23,-170.79 323.71,-226.27l-352.41 -1.04 -55.86 -338.11 -179 339.77z"/>
  <path class="fil4" d="M5832.5 4424.44l-213.78 -0.79c33.4,53.49 101.82,82.9 139.96,133.21l-94.08 194.25c42.15,-13.83 154.98,-88.73 192.22,-116.08 52.47,37.84 98.24,86.77 156.7,119.71l-29.13 -196.02c49.93,-45.8 135.67,-85.5 189.98,-133.8l-212 -0.93 -27.2 -197.04c-38.13,40.99 -84.03,140.17 -102.67,197.49z"/>
  <path class="fil4" d="M9591.12 4789.28l-1307.93 0.37 917.96 765.43c-16.73,73.51 -114.37,238.15 -151.1,314.87l-468.42 939.58c56.16,-21.79 504.53,-319.81 597.14,-377.77 135.82,-84.99 492.23,-330.65 600.22,-383.3 141.77,101.14 623.94,516.86 809.29,669.73 44.27,36.51 69.78,66.17 118.82,93.61l-184.52 -1250.28c141.24,-77.29 445.26,-283.69 597.27,-381.46l519.06 -334.66c14.3,-9.06 30.5,-18.36 38.12,-23.79l36.76 -31.66 -1304.55 -0.4c-32.3,-176.45 -157.28,-1176.83 -194.21,-1245.02l-623.9 1244.74z"/>
  <polygon class="fil5 str0" points="12107.24,6273.97 21406.38,6273.97 21206.78,6847.24 11907.64,6847.24 "/>
  <path class="fil8" d="M14077.87 6532.27l0 -78.01c-12.76,13.24 -26.86,26 -42.32,38.27 -15.46,12.27 -32.02,24.04 -49.68,35.33l-46.37 -64.03 -8.1 12.51c-10.79,-9.32 -19.5,-16.68 -26.12,-22.08 -6.63,-5.4 -13.86,-11.04 -21.71,-16.93l0 83.16c3.93,-4.91 7.11,-9.08 9.57,-12.51l83.16 28.7c-2.95,4.91 -6.01,9.57 -9.2,13.99 -3.19,4.42 -6.5,8.83 -9.94,13.25l278.2 0 0 78.75c-25.02,26.99 -51.39,51.88 -79.12,74.7 -27.72,22.82 -60.47,44.52 -98.25,65.14 -37.78,20.61 -82.18,40.48 -133.21,59.61 -51.03,19.14 -111.87,38.27 -182.52,57.41l-50.78 -84.64c43.67,-10.8 83.17,-21.46 118.49,-32.02 35.33,-10.55 67.47,-20.98 96.41,-31.28 -13.74,-9.81 -28.21,-19.38 -43.42,-28.7 -15.21,-9.32 -30.18,-17.91 -44.9,-25.76 -11.28,8.34 -22.94,16.68 -34.96,25.02 -12.02,8.34 -24.41,16.44 -37.17,24.29l-55.2 -69.92c35.32,-21.59 68.81,-44.53 100.46,-68.82 31.64,-24.29 58.51,-48.7 80.59,-73.23l-72.13 0 0 -72.13c-13.25,15.7 -28.09,30.91 -44.53,45.63 -16.43,14.72 -34.22,29.19 -53.36,43.42l-53.72 -70.65c26.49,-17.17 51.39,-35.57 74.7,-55.2 23.31,-19.62 43.3,-40.23 59.98,-61.82l-89.79 0 0 -78.75 106.72 0 0 -63.29 83.9 3.68 0 59.61 88.32 0 0 78.75 -88.32 0 0 37.53 22.81 -32.38c12.27,7.36 23.06,14.35 32.39,20.98 9.32,6.62 20.12,14.84 32.38,24.65l-29.44 45.63c27.48,-14.72 50.54,-29.81 69.18,-45.26 18.64,-15.45 35.57,-32.51 50.78,-51.15l-69.92 0 0 -78.75 86.11 0 0 -63.29 85.37 3.68 0 59.61 122.91 0 0 78.75 -107.45 0c18.64,20.12 41.21,39.38 67.71,57.77 26.49,18.4 55.19,35.45 86.11,51.15l-40.48 75.81c-24.53,-14.23 -47.72,-29.44 -69.55,-45.63 -21.83,-16.19 -41.58,-33.61 -59.25,-52.26l0 81.69 -85.37 0zm-144.99 209.75c45.63,-17.17 82.92,-33.98 111.87,-50.41 28.95,-16.44 52.99,-32.5 72.13,-48.2l-225.2 0c12.26,6.87 24.65,13.98 37.17,21.34 12.51,7.36 24.41,14.72 35.7,22.08l-31.65 55.2zm601.58 -220.79c-10.8,15.21 -22.32,30.05 -34.59,44.52 -12.26,14.47 -25.02,28.58 -38.27,42.32l-38.27 -83.16c41.7,-38.27 75.31,-82.67 100.83,-133.21l-69.92 0 0 -81.69 80.22 0 0 -84.64 88.32 3.68 0 80.96 66.97 0 0 81.69 -66.97 0 0 50.05 19.87 -24.29c22.08,16.69 45.39,37.78 69.92,63.29l0 -229.62 323.09 0 0 378.29 -257.59 0c5.4,6.38 11.41,13.62 18.03,21.71 6.62,8.1 13.13,16.44 19.5,25.02 6.38,8.58 12.39,16.8 18.03,24.65 5.64,7.85 10.18,14.72 13.62,20.61l-66.24 57.4c-3.93,-6.37 -9.2,-14.6 -15.83,-24.65 -6.62,-10.06 -13.74,-20.36 -21.34,-30.91 -7.6,-10.55 -15.21,-20.73 -22.81,-30.54 -7.61,-9.81 -13.86,-17.66 -18.77,-23.55l51.52 -39.74 -41.21 0 0 -136.89 -41.95 56.67c-14.72,-17.17 -30.67,-33.85 -47.84,-50.05l0 143.51 -88.32 0 0 -121.43zm263.48 -197.24l0 30.91 150.14 0 0 -30.91 -150.14 0zm150.14 131l0 -30.91 -150.14 0 0 30.91 150.14 0zm0 101.56l0 -31.64 -150.14 0 0 31.64 150.14 0zm44.89 93.47c7.36,10.31 15.33,21.95 23.92,34.96 8.58,13 17.29,26.49 26.12,40.48 8.83,13.99 17.3,27.84 25.39,41.58 8.1,13.74 15.09,26.25 20.98,37.53l-74.33 52.26c-5.89,-12.27 -12.76,-25.64 -20.61,-40.11 -7.85,-14.47 -16.07,-29.07 -24.65,-43.79 -8.59,-14.72 -17.05,-28.95 -25.39,-42.69 -8.34,-13.74 -16.19,-25.51 -23.55,-35.33l72.13 -44.89zm-569.64 168.54c7.36,-11.28 14.47,-23.68 21.34,-37.17 6.87,-13.5 13.61,-27.35 20.24,-41.58 6.62,-14.23 12.75,-28.34 18.4,-42.32 5.64,-13.99 10.67,-27.35 15.09,-40.11l80.96 30.91c-4.91,14.72 -10.55,29.69 -16.93,44.89 -6.38,15.21 -13.13,30.3 -20.24,45.26 -7.11,14.97 -14.35,29.44 -21.71,43.42 -7.36,13.99 -14.47,26.86 -21.34,38.64l-75.81 -41.95zm423.18 -49.31c1.47,-6.87 2.7,-14.47 3.68,-22.82 0.98,-8.34 1.72,-15.7 2.21,-22.08l86.11 25.02c-0.98,9.33 -2.21,18.65 -3.68,27.97 -1.47,9.32 -3.43,20.12 -5.89,32.38 -2.94,14.72 -6.25,26.86 -9.93,36.43 -3.68,9.57 -8.95,17.3 -15.82,23.19 -6.87,5.88 -15.95,10.06 -27.23,12.51 -11.28,2.45 -26,3.93 -44.16,4.42 -49.07,1.47 -98.13,1.47 -147.19,0 -33.37,-0.98 -57.04,-7.73 -71.03,-20.24 -13.98,-12.51 -20.98,-33.49 -20.98,-62.93l0 -139.1 86.85 3.68 0 101.56c0,14.72 1.84,24.16 5.52,28.33 3.68,4.17 12.64,6.5 26.86,6.99 31.89,1.47 64.03,1.47 96.41,0 7.36,-0.49 13.25,-1.23 17.66,-2.21 4.42,-0.98 7.97,-2.82 10.67,-5.52 2.7,-2.7 4.66,-6.25 5.89,-10.67 1.23,-4.42 2.57,-10.06 4.05,-16.93zm667.09 -309.85c0,-13.74 1.96,-29.68 5.88,-47.84 3.93,-18.15 8.95,-36.68 15.09,-55.57 6.13,-18.89 12.88,-37.17 20.24,-54.83 7.36,-17.66 14.72,-33.12 22.08,-46.37l74.33 0c-4.91,14.23 -9.81,30.05 -14.72,47.47 -4.91,17.42 -9.32,35.32 -13.24,53.72 -3.93,18.4 -7.12,36.55 -9.57,54.46 -2.45,17.91 -3.68,34.22 -3.68,48.94l-96.41 0zm170.74 0c0,-13.74 1.96,-29.68 5.89,-47.84 3.92,-18.15 8.95,-36.68 15.09,-55.57 6.13,-18.89 12.88,-37.17 20.24,-54.83 7.36,-17.66 14.72,-33.12 22.08,-46.37l75.07 0c-5.4,14.23 -10.43,30.05 -15.09,47.47 -4.66,17.42 -8.96,35.32 -12.88,53.72 -3.93,18.4 -7.12,36.55 -9.57,54.46 -2.45,17.91 -3.93,34.22 -4.42,48.94l-96.41 0zm652.37 323.1c46.12,1.47 91.75,1.96 136.89,1.47 45.14,-0.49 90.77,-1.96 136.89,-4.42l-21.34 88.32c-43.67,2.45 -87.09,4.05 -130.27,4.78 -43.18,0.74 -86.6,0.37 -130.27,-1.11 -28.46,-0.98 -54.46,-3.31 -78.01,-6.99 -23.55,-3.68 -44.9,-9.44 -64.03,-17.3 -19.14,-7.85 -36.31,-17.79 -51.52,-29.81 -15.21,-12.02 -28.95,-26.86 -41.21,-44.52 -10.8,21.1 -23.31,41.21 -37.53,60.35 -14.23,19.14 -30.67,39.01 -49.31,59.61l-77.27 -56.67c20.61,-22.08 38.27,-43.06 52.99,-62.93 14.72,-19.87 26.99,-40.72 36.8,-62.56 9.82,-21.84 17.3,-45.63 22.45,-71.39 5.15,-25.76 8.71,-55.57 10.67,-89.42l91.26 11.04c-2.94,40.72 -7.61,76.29 -13.99,106.72 12.27,27.97 27.72,50.17 46.37,66.6 18.64,16.44 41.46,28.58 68.45,36.43l0 -248.02 -209.75 0 0 -272.31 493.1 0 0 272.31 -191.35 0 0 80.22 224.47 0 0 84.64 -224.47 0 0 94.94zm-210.49 -348.85l312.05 0 0 -94.2 -312.05 0 0 94.2zm608.21 25.76c4.91,-13.74 9.81,-29.31 14.72,-46.73 4.91,-17.42 9.32,-35.32 13.25,-53.72 3.93,-18.4 7.12,-36.55 9.57,-54.46 2.45,-17.91 3.68,-34.47 3.68,-49.68l96.41 0c0,13.74 -1.96,29.69 -5.89,47.84 -3.92,18.15 -8.83,36.68 -14.72,55.56 -5.89,18.89 -12.63,37.17 -20.24,54.83 -7.61,17.66 -15.09,33.12 -22.45,46.37l-74.33 0zm170.74 0c4.91,-13.74 9.81,-29.31 14.72,-46.73 4.91,-17.42 9.32,-35.32 13.24,-53.72 3.93,-18.4 7.12,-36.55 9.57,-54.46 2.45,-17.91 3.68,-34.47 3.68,-49.68l97.15 0c0,13.74 -1.96,29.69 -5.88,47.84 -3.93,18.15 -8.96,36.68 -15.09,55.56 -6.13,18.89 -12.88,37.17 -20.24,54.83 -7.36,17.66 -14.72,33.12 -22.08,46.37l-75.07 0zm1222.01 89.05l0 80.22c-12.27,26.5 -26.13,51.52 -41.58,75.07 -15.46,23.55 -34.47,46 -57.04,67.34 -22.57,21.34 -49.68,41.83 -81.32,61.46 -31.65,19.62 -69.8,39.25 -114.44,58.88l-49.31 -72.86c-5.88,21.1 -16.8,35.82 -32.75,44.16 -15.94,8.34 -38.14,13.74 -66.6,16.2l-50.05 4.42 -26.5 -85.37 54.46 -3.68c11.28,-0.49 20,-1.59 26.13,-3.31 6.13,-1.72 10.67,-4.54 13.62,-8.46 2.94,-3.93 4.66,-9.33 5.15,-16.2 0.49,-6.87 0.98,-16.19 1.47,-27.97 0,-4.42 0.13,-15.45 0.37,-33.12 0.25,-17.66 0.49,-38.64 0.74,-62.93 0.25,-24.29 0.49,-50.17 0.74,-77.65 0.24,-27.48 0.49,-53.36 0.74,-77.64 0.24,-24.29 0.37,-45.26 0.37,-62.93 0,-17.66 0,-28.7 0,-33.12l-137.63 0c-13.25,18.15 -29.19,37.29 -47.84,57.4l159.71 0 0 298.8 -180.31 0 0 -287.77 -49.31 -52.99c29.44,-27.97 53.36,-56.06 71.76,-84.27 18.4,-28.21 33.98,-58.26 46.73,-90.16l79.48 11.78c-3.92,10.3 -8.1,20.24 -12.51,29.81 -4.42,9.56 -8.83,19.01 -13.25,28.33l167.07 0c0,3.93 0,12.02 0,24.29 0,12.26 -0.25,27.72 -0.74,46.37 24.04,-22.57 44.65,-45.14 61.82,-67.71 17.17,-22.57 31.89,-46.37 44.16,-71.39l80.95 11.77c-5.4,11.77 -11.28,23.55 -17.66,35.33l151.61 0 0 79.48c-18.65,27.97 -38.52,53.85 -59.61,77.65 -21.1,23.8 -47.59,46.49 -79.48,68.07l30.17 13.25c-5.4,11.28 -10.79,21.1 -16.19,29.44l136.89 0zm-332.66 -144.25c-0.49,19.14 -0.86,39.5 -1.11,61.09 -0.25,21.59 -0.49,43.67 -0.74,66.24 -0.24,22.57 -0.49,44.9 -0.74,66.97 -0.24,22.08 -0.61,42.93 -1.1,62.56 25.02,-18.64 46.37,-37.04 64.03,-55.19 17.66,-18.15 33.61,-37.29 47.84,-57.41 -11.28,5.4 -22.81,10.8 -34.59,16.19 -11.77,5.4 -24.29,10.8 -37.53,16.19l-35.32 -69.92c30.91,-10.8 58.02,-22.45 81.32,-34.96 23.31,-12.51 44.04,-25.39 62.19,-38.63 18.15,-13.25 34.22,-26.74 48.2,-40.48 13.99,-13.74 26.86,-27.72 38.64,-41.95l-111.13 0 -13.25 15.46c7.85,6.37 15.83,13 23.92,19.87 8.1,6.87 16.56,13.74 25.39,20.61l-55.94 50.05c-8.34,-8.34 -15.95,-15.58 -22.82,-21.71 -6.87,-6.13 -13.74,-12.14 -20.61,-18.03 -3.92,3.93 -7.97,7.48 -12.14,10.67 -4.17,3.19 -8.22,6.5 -12.14,9.94l-32.38 -37.54zm-216.38 271.58l34.59 0 0 -153.82 -34.59 0 0 153.82zm206.81 137.63c38.27,-13.74 71.27,-27.84 98.99,-42.32 27.72,-14.47 51.51,-29.44 71.39,-44.89 19.87,-15.45 36.68,-31.52 50.41,-48.21 13.74,-16.68 26,-34.34 36.8,-52.99l-105.24 0c-3.44,4.42 -6.87,8.71 -10.31,12.88 -3.43,4.17 -7.11,8.22 -11.04,12.14l54.46 44.89 -58.88 54.46c-7.36,-8.34 -15.09,-16.56 -23.18,-24.65 -8.1,-8.1 -16.32,-15.82 -24.66,-23.18 -5.4,4.91 -11.04,9.69 -16.93,14.35 -5.88,4.66 -11.77,9.45 -17.66,14.35l-38.27 -48.57 -1.47 92c0,15.7 -1.47,28.94 -4.42,39.74zm1099.1 -356.21l0 64.03 -390.06 0 0 -64.03 140.57 0 0 -22.82 -113.34 0 0 -62.56 113.34 0 0 -22.81 -117.02 0 0 -66.24 117.02 0 0 -50.05 80.96 4.42 0 45.63 141.3 0 0 66.24 -141.3 0 0 22.81 125.11 0 0 62.56 -125.11 0 0 22.82 168.54 0zm-374.61 86.84l328.98 0 0 262.01c0,14.72 -1.23,26.74 -3.68,36.06 -2.45,9.32 -6.63,16.93 -12.51,22.82 -5.89,5.89 -13.86,10.43 -23.92,13.62 -10.06,3.19 -22.44,5.52 -37.17,6.99l-39.01 4.42 -26.49 -72.13 37.53 -4.42c12.75,-1.47 20.24,-4.29 22.44,-8.46 2.21,-4.17 3.32,-11.16 3.32,-20.98l-171.49 0 0 100.09 -78.01 0 0 -192.82 -48.57 42.69c-6.38,-9.81 -13.37,-20.24 -20.98,-31.28 -7.61,-11.04 -15.58,-22.21 -23.92,-33.49l0 217.85 -79.48 0 0 -196.51c-8.34,15.21 -17.42,30.18 -27.23,44.9 -9.82,14.72 -20.61,29.68 -32.39,44.89l-63.29 -61.82c22.08,-25.02 42.81,-52.01 62.19,-80.96 19.38,-28.95 35.44,-60.35 48.2,-94.21l-74.33 0 0 -83.9 86.84 0 0 -33.12 -58.14 19.87c-2.94,-10.31 -6.38,-21.84 -10.31,-34.59 -3.92,-12.76 -7.97,-25.52 -12.14,-38.27 -4.17,-12.76 -8.1,-25.02 -11.77,-36.8 -3.68,-11.78 -6.99,-21.59 -9.94,-29.44l64.77 -25.02c1.96,6.37 4.54,14.23 7.73,23.55 3.19,9.32 6.5,19.38 9.94,30.18 3.43,10.8 6.87,21.71 10.3,32.75 3.44,11.04 6.63,21.46 9.57,31.28l0 -164.12 79.48 4.42 0 147.19c6.38,-18.16 12.76,-36.8 19.14,-55.94 6.38,-19.14 11.77,-35.57 16.19,-49.31l64.03 19.87c-3.44,11.28 -7.24,23.55 -11.41,36.8 -4.17,13.25 -8.58,26.5 -13.25,39.74 -4.66,13.24 -9.2,25.88 -13.61,37.9 -4.42,12.02 -8.34,22.44 -11.77,31.28l-49.31 -19.87 0 31.64 64.77 0 0 83.9 -64.77 0 0 51.52 23.55 -21.34c4.42,5.4 9.56,11.65 15.45,18.77 5.89,7.11 11.9,14.72 18.03,22.81 6.13,8.1 12.39,16.32 18.76,24.65 6.38,8.34 12.27,16.2 17.66,23.55l0 -119.23zm78.01 64.77l0 22.81 171.49 0 0 -22.81 -171.49 0zm0 108.92l171.49 0 0 -22.82 -171.49 0 0 22.82zm489.72 -219.32c-2.45,-7.36 -5.76,-16.07 -9.93,-26.13 -4.17,-10.06 -8.83,-20.49 -13.99,-31.28 -5.15,-10.8 -10.43,-21.47 -15.82,-32.02 -5.4,-10.55 -10.31,-19.5 -14.72,-26.86l52.99 -29.44 -39.01 2.21 -8.83 -86.11c25.51,-0.49 52.87,-1.72 82.06,-3.68 29.2,-1.96 58.51,-4.54 87.95,-7.73 29.44,-3.19 58.38,-6.87 86.84,-11.04 28.45,-4.17 54.46,-8.71 78.01,-13.62l13.25 83.9c-23.55,3.93 -49.68,7.97 -78.38,12.14 -28.7,4.17 -58.02,7.97 -87.95,11.41 3.43,6.87 7.24,14.6 11.41,23.18 4.17,8.58 8.34,17.54 12.51,26.86 4.17,9.32 7.97,18.4 11.41,27.23 3.44,8.83 6.38,16.69 8.83,23.55l-68.45 33.85c-1.96,-6.38 -4.78,-14.35 -8.46,-23.92 -3.68,-9.56 -7.73,-19.38 -12.15,-29.44 -4.42,-10.06 -8.83,-19.87 -13.24,-29.44 -4.42,-9.56 -8.34,-17.54 -11.78,-23.92l61.82 -27.23c-18.65,2.45 -37.17,4.54 -55.57,6.25 -18.4,1.72 -36.19,3.07 -53.36,4.05 10.3,17.66 20.36,36.55 30.17,56.67 9.82,20.11 17.17,37.04 22.08,50.78l-67.71 39.74zm295.13 -133.21c-2.45,5.88 -5.03,12.39 -7.73,19.5 -2.7,7.12 -5.76,14.35 -9.2,21.71 38.76,-22.57 74.33,-47.47 106.72,-74.7 32.38,-27.23 64.03,-59.98 94.94,-98.25l64.77 50.78c-31.89,39.74 -65.5,75.81 -100.83,108.19 -35.33,32.39 -73.84,61.58 -115.55,87.58l-50.05 -72.12c-7.36,16.19 -15.09,32.63 -23.18,49.31 -8.1,16.68 -15.58,30.91 -22.45,42.69l-66.24 -30.91c11.77,-18.15 23.3,-39.38 34.59,-63.66 11.28,-24.29 20.36,-47.22 27.23,-68.81l66.97 28.7zm-2.21 225.2c43.18,-23.55 81.08,-49.8 113.71,-78.75 32.62,-28.95 63.9,-61.58 93.83,-97.89l62.56 50.78c-29.44,39.25 -61.94,75.81 -97.51,109.66 -35.58,33.85 -75.44,64.52 -119.6,92l-52.99 -75.81zm-93.47 38.27c6.38,4.42 14.84,11.41 25.39,20.98 10.55,9.57 21.59,19.63 33.12,30.18 11.53,10.55 22.2,20.73 32.01,30.54 9.82,9.81 17.17,17.66 22.08,23.55l-58.88 66.24c-5.89,-7.36 -12.39,-15.21 -19.5,-23.55 -7.12,-8.34 -14.6,-16.68 -22.45,-25.02 -7.85,-8.34 -15.58,-16.44 -23.18,-24.29 -7.61,-7.85 -14.6,-14.96 -20.98,-21.34l0 182.52 -82.43 0 0 -162.65c-16.68,23.55 -34.83,45.26 -54.46,65.14 -19.63,19.87 -41.21,38.63 -64.77,56.3l-55.19 -72.86c30.91,-22.08 58.88,-45.75 83.9,-71.02 25.02,-25.27 46.61,-52.62 64.76,-82.06l-109.66 0 0 -81.69 135.42 0 0 -52.99 82.43 3.68 0 49.31 114.08 0 0 81.69 -114.08 0 0 47.1 32.39 -39.74zm389.33 27.23c-15.7,22.08 -33.98,44.16 -54.83,66.24 -20.85,22.08 -43.67,43.42 -68.44,64.03 -24.78,20.61 -51.15,40.36 -79.12,59.25 -27.97,18.89 -56.91,35.94 -86.84,51.15l-45.63 -78.01c55.94,-27.97 106.35,-59.12 151.24,-93.47 44.89,-34.34 84.27,-73.84 118.12,-118.49l65.5 49.31z"/>
  <path class="fil4 str2" d="M12102.48 7707.84c-28.96,-35.07 -76.86,-77.53 -111.22,-111.79 -39.22,-39.11 -75.03,-74.91 -114.21,-114.07 -39.16,-39.14 -75.28,-74.49 -114.24,-114.06 -22.85,-23.21 -101.61,-95.5 -112.61,-116.62 107.17,1.28 2201.82,0.11 2309.09,0.05 89.07,-0.05 65.65,1.53 114.13,48.81l326.51 325.73c21.96,21.84 64.66,59.95 80.24,81.94 -17.37,24.47 -371.3,369.2 -434.69,435.59 -21.12,22.1 -16.95,21.43 -58.12,20.97l-2337.11 -0.11c16.48,-31.51 399.54,-392.95 452.23,-456.45z"/>
  <path class="fil5 str2" d="M14700.91 7707.84c-28.96,-35.07 -76.86,-77.53 -111.22,-111.79 -39.23,-39.11 -75.04,-74.91 -114.21,-114.07 -39.16,-39.14 -75.28,-74.49 -114.24,-114.06 -22.85,-23.21 -101.61,-95.5 -112.61,-116.62 107.17,1.28 2201.82,0.11 2309.09,0.05 89.07,-0.05 65.65,1.53 114.13,48.81l326.51 325.73c21.96,21.84 64.66,59.95 80.24,81.94 -17.37,24.47 -371.3,369.2 -434.69,435.59 -21.12,22.1 -16.95,21.43 -58.12,20.97l-2337.11 -0.11c16.48,-31.51 399.54,-392.95 452.23,-456.45z"/>
  <path class="fil4 str2" d="M17299.34 7707.84c-28.96,-35.07 -76.86,-77.53 -111.22,-111.79 -39.23,-39.11 -75.04,-74.91 -114.21,-114.07 -39.16,-39.14 -75.28,-74.49 -114.24,-114.06 -22.85,-23.21 -101.61,-95.5 -112.61,-116.62 107.17,1.28 2201.82,0.11 2309.09,0.05 89.06,-0.05 65.64,1.53 114.13,48.81l326.51 325.73c21.96,21.84 64.67,59.95 80.24,81.94 -17.37,24.47 -371.3,369.2 -434.69,435.59 -21.11,22.1 -16.95,21.43 -58.12,20.97l-2337.11 -0.11c16.48,-31.51 399.55,-392.95 452.23,-456.45z"/>
  <path class="fil5 str2" d="M19897.78 7707.84c-28.96,-35.07 -76.86,-77.53 -111.22,-111.79 -39.23,-39.11 -75.04,-74.91 -114.21,-114.07 -39.16,-39.14 -75.29,-74.49 -114.25,-114.06 -22.85,-23.21 -101.61,-95.5 -112.61,-116.62 107.17,1.28 2201.82,0.11 2309.09,0.05 89.06,-0.05 65.64,1.53 114.13,48.81l326.51 325.73c21.96,21.84 64.67,59.95 80.24,81.94 -17.37,24.47 -371.3,369.2 -434.69,435.59 -21.11,22.1 -16.95,21.43 -58.12,20.97l-2337.12 -0.11c16.48,-31.51 399.55,-392.95 452.23,-456.45z"/>
  <path class="fil8" d="M12980.15 7456l0 486.8 -451.58 0 0 -486.8 451.58 0zm-71.01 64.19l-307.87 0 0 360.69 307.87 0 0 -360.69zm-306.16 244.82c11.74,-7.19 24.04,-15.53 36.92,-24.99 12.88,-9.47 25.47,-19.6 37.78,-30.39 12.31,-10.8 24.23,-21.96 35.78,-33.52 11.55,-11.55 22.06,-23 31.53,-34.36l-126.67 0 0 -61.35 163.02 0 0 -47.15 67.03 2.27 0 44.87 46.01 0 0 61.35 -46.01 0 0 135.19c0,16.28 -0.85,29.63 -2.55,40.05 -1.71,10.41 -5.21,18.84 -10.51,25.27 -5.3,6.44 -12.97,11.17 -23.01,14.2 -10.03,3.03 -23.38,5.3 -40.05,6.82l-40.9 3.41 -18.75 -61.92 37.49 -2.84c7.19,-0.38 12.87,-1.04 17.04,-1.99 4.16,-0.95 7.29,-2.74 9.37,-5.4 2.08,-2.65 3.41,-6.34 3.97,-11.08 0.57,-4.73 0.85,-11.27 0.85,-19.6l0 -73.84c-9.09,12.5 -18.65,24.43 -28.69,35.78 -10.03,11.36 -20.73,22.44 -32.09,33.23 -11.36,10.8 -23.57,21.59 -36.64,32.38 -13.06,10.79 -27.36,21.87 -42.89,33.23l-38.06 -59.64zm947.69 196.54c-29.54,-30.67 -54.82,-62.11 -75.83,-94.29 -21.02,-32.19 -38.15,-67.22 -51.41,-105.08 -10.22,34.84 -25.47,69.11 -45.73,102.81 -20.26,33.7 -48,67.79 -83.22,102.25l-50.55 -54.53c26.89,-24.99 49.13,-50.27 66.75,-75.83 17.61,-25.56 31.43,-53.77 41.47,-84.64 10.03,-30.86 17.04,-65.42 21.02,-103.66 3.97,-38.25 5.77,-82.55 5.4,-132.92l0 -67.03 68.73 1.71 0 78.96c0,9.85 0,19.4 0,28.68 0,9.28 -0.19,18.65 -0.57,28.12 3.03,36.36 8.33,68.92 15.9,97.7 7.58,28.78 17.61,55.57 30.11,80.38 12.5,24.8 27.74,48.28 45.73,70.43 17.98,22.15 39.1,44.78 63.33,67.88l-51.12 59.08zm-232.89 -202.79c0,17.04 -1.23,30.96 -3.69,41.75 -2.46,10.79 -6.91,19.4 -13.35,25.84 -6.44,6.44 -15.14,11.36 -26.13,14.77 -10.98,3.41 -24.8,6.44 -41.47,9.09l-21.59 3.41 -23.85 -66.46 26.7 -3.97c7.19,-1.14 13.16,-2.37 17.89,-3.69 4.74,-1.33 8.42,-3.22 11.08,-5.68 2.65,-2.46 4.45,-5.58 5.4,-9.37 0.95,-3.79 1.42,-8.9 1.42,-15.34 0,-12.5 -3.97,-27.46 -11.92,-44.87 -7.95,-17.42 -21.4,-36.17 -40.33,-56.24 8.71,-19.31 16.95,-38.53 24.71,-57.66 7.77,-19.12 14.86,-38.34 21.3,-57.65l-61.35 0 0 419.2 -65.89 0 0 -488.5 197.68 0 0 69.3c-6.44,17.42 -13.35,34.74 -20.73,51.97 -7.39,17.23 -15.43,34.56 -24.14,51.97 16.66,21.59 28.87,42.42 36.64,62.48 7.76,20.07 11.64,39.95 11.64,59.64z"/>
  <path class="fil8" d="M15601.59 7801.36c-6.06,-10.22 -12.97,-21.21 -20.73,-32.94 -7.76,-11.74 -15.81,-23.29 -24.14,-34.65 -1.13,17.04 -2.08,33.61 -2.84,49.7 -0.76,16.09 -1.51,30.58 -2.27,43.45 -0.76,12.87 -1.42,23.76 -1.99,32.66 -0.57,8.9 -0.85,14.86 -0.85,17.89 -0.76,16.28 -2.46,29.44 -5.11,39.48 -2.65,10.03 -6.82,17.99 -12.5,23.86 -5.68,5.87 -13.25,10.22 -22.72,13.06 -9.47,2.84 -21.21,5.02 -35.22,6.53l-39.2 4.55 -21.01 -71.01 35.78 -3.97c6.44,-0.76 11.64,-1.9 15.62,-3.41 3.98,-1.52 7.2,-3.79 9.66,-6.82 2.46,-3.03 4.17,-6.91 5.11,-11.64 0.95,-4.74 1.8,-10.89 2.55,-18.46 0.38,-3.41 0.95,-11.17 1.71,-23.29 0.76,-12.12 1.61,-26.41 2.55,-42.89 0.95,-16.47 1.99,-33.99 3.13,-52.54 1.13,-18.56 2.27,-36.17 3.41,-52.83 1.13,-16.66 1.99,-31.15 2.55,-43.45 0.57,-12.31 1.04,-20.35 1.42,-24.14l-55.1 0c-1.52,45.06 -4.64,84.16 -9.38,117.29 -4.73,33.14 -12.12,63.15 -22.15,90.03 -10.03,26.89 -23.2,52.16 -39.48,75.83 -16.28,23.67 -36.54,48.37 -60.78,74.13l-54.53 -42.6c23.1,-22.72 41.94,-44.97 56.52,-66.74 14.58,-21.77 26.22,-44.88 34.94,-69.3 8.71,-24.43 15.15,-51.03 19.31,-79.81 4.16,-28.78 7.38,-61.72 9.66,-98.84l-81.23 0 0 -69.87 84.07 0c0.38,-17.42 0.66,-34.17 0.85,-50.27 0.19,-16.1 0.47,-28.12 0.85,-36.07l65.32 2.84c-0.38,7.57 -0.66,18.93 -0.85,34.08 -0.19,15.15 -0.48,31.62 -0.85,49.42l123.26 0c0,2.27 -0.19,6.72 -0.57,13.35 -0.38,6.63 -0.85,14.95 -1.42,24.99 -0.57,10.04 -1.23,21.4 -1.99,34.08 -0.76,12.69 -1.52,26.22 -2.27,40.62 6.82,7.19 14.2,15.43 22.15,24.71 7.95,9.28 15.81,18.75 23.57,28.4 7.77,9.66 15.05,19.03 21.87,28.12 6.82,9.09 12.3,16.85 16.47,23.29l-43.17 43.17zm-362.4 -144.85l0 305.6 -68.17 0 0 -305.6 -46.57 0 0 -68.73 46.57 0 0 -132.35 68.17 2.84 0 129.51 42.6 0 0 68.73 -42.6 0zm121.56 7.39c-3.41,12.12 -7.29,24.99 -11.64,38.62 -4.35,13.63 -9.09,27.17 -14.2,40.61 -5.11,13.44 -10.42,26.41 -15.9,38.91 -5.49,12.5 -10.7,23.85 -15.62,34.08l-57.37 -29.54c12.87,-22.34 23.76,-45.73 32.66,-70.15 8.9,-24.43 16.57,-48.95 23.01,-73.56l59.07 21.02zm685.27 -71.57l0 59.64 127.8 0 0 71.57 -127.8 0 0 58.5 140.3 0 0 72.14 -140.3 0 0 106.22 -72.14 0 0 -368.08 -1.13 0c-10.22,18.93 -21.96,38.53 -35.22,58.79 -13.26,20.26 -28.4,41.37 -45.45,63.34l-43.73 -39.2 0 280.61 -72.71 0 0 -255.05c-5.3,7.95 -10.8,15.81 -16.48,23.57 -5.68,7.77 -11.55,15.43 -17.61,23.01l-49.42 -51.12c32.57,-39.38 59.45,-80.38 80.66,-122.98 21.2,-42.6 37.3,-82.84 48.28,-120.71l67.03 22.15c-4.54,12.87 -10.13,27.55 -16.76,44.02 -6.63,16.47 -14.3,34.17 -23,53.11l0 81.8c27.64,-34.46 50.17,-68.45 67.59,-101.96 17.42,-33.52 31.62,-68.07 42.6,-103.66l69.3 19.88c-5.68,16.66 -12.5,34.27 -20.45,52.83l195.4 0 0 71.57 -156.77 0z"/>
  <path class="fil8" d="M17909.47 7678.95c-3.03,6.82 -5.96,13.45 -8.8,19.88 -2.84,6.44 -5.78,12.5 -8.8,18.17l264.13 0 0 71.01c-16.28,12.12 -33.23,25.46 -50.84,40.05 -17.61,14.58 -34.74,29.07 -51.4,43.45 14.77,4.93 28.87,9.56 42.31,13.92 13.45,4.35 25.85,8.61 37.21,12.78l-19.88 72.14c-23.85,-9.47 -50.08,-19.22 -78.67,-29.25 -28.59,-10.04 -57.37,-19.79 -86.34,-29.25 -28.97,-9.47 -56.99,-18.27 -84.07,-26.41 -27.07,-8.14 -50.84,-14.86 -71.29,-20.17l21.02 -65.32c22.72,6.44 48.38,13.82 76.97,22.15 28.59,8.33 57.65,16.85 87.19,25.56 14.01,-10.98 27.74,-21.96 41.18,-32.95 13.44,-10.98 26.22,-20.82 38.34,-29.54l-252.21 0 0 -60.78c3.79,-6.44 7.58,-13.44 11.36,-21.02 3.79,-7.57 7.76,-15.72 11.93,-24.43l-105.66 0 0 -67.59 132.92 0c2.65,-6.44 5.11,-13.06 7.39,-19.88 2.27,-6.82 4.54,-13.63 6.82,-20.45l-114.17 0 0 -68.16 135.76 0c3.02,-9.85 5.87,-19.6 8.52,-29.25 2.65,-9.66 5.11,-19.03 7.39,-28.12l73.27 13.06c-1.9,7.57 -3.79,14.96 -5.68,22.15 -1.9,7.19 -3.79,14.58 -5.68,22.15l200.51 0 0 68.16 -220.96 0 -13.64 40.33 268.11 0 0 67.59 -294.24 0zm513.15 -90.31c-5.68,-5.68 -12.97,-12.02 -21.87,-19.03 -8.9,-7.01 -17.99,-14.11 -27.27,-21.3 -9.27,-7.19 -18.46,-13.82 -27.55,-19.88 -9.09,-6.06 -16.66,-10.98 -22.72,-14.77l37.49 -57.94c6.06,3.79 13.44,8.71 22.15,14.77 8.71,6.06 17.61,12.31 26.7,18.75 9.09,6.44 17.89,12.97 26.41,19.59 8.52,6.63 15.62,12.4 21.3,17.32l-34.65 62.48zm378.31 285.15l0 68.73 -373.19 0 0 -68.73 150.52 0 0 -110.2 -113.03 0 0 -69.87 113.03 0 0 -92.59 -117.58 0 0 -69.87 121.56 0 -13.64 -70.43 76.12 -3.41 13.07 73.84 122.12 0 0 69.87 -130.64 0 0 92.59 113.03 0 0 69.87 -113.03 0 0 110.2 151.66 0zm-399.89 -149.96c-7.2,-6.82 -15.62,-14.11 -25.28,-21.87 -9.66,-7.76 -19.4,-15.43 -29.25,-23.01 -9.85,-7.57 -19.5,-14.67 -28.97,-21.3 -9.47,-6.63 -17.61,-12.02 -24.42,-16.19l39.19 -58.51c7.19,4.55 15.24,9.85 24.14,15.9 8.9,6.06 17.99,12.59 27.27,19.6 9.28,7 18.46,14.01 27.55,21.02 9.09,7 17.23,13.53 24.43,19.59l-34.65 64.76zm46.01 46.57c-1.51,3.79 -4.07,10.42 -7.67,19.88 -3.6,9.47 -7.95,20.26 -13.06,32.38 -5.11,12.12 -10.51,25.09 -16.19,38.91 -5.68,13.82 -11.17,26.98 -16.47,39.47 -5.3,12.5 -10.22,23.76 -14.77,33.8 -4.55,10.03 -7.95,17.51 -10.23,22.43l-67.59 -27.83c2.27,-3.41 5.68,-9.94 10.22,-19.59 4.55,-9.66 9.56,-20.83 15.06,-33.52 5.49,-12.69 11.27,-26.04 17.32,-40.05 6.05,-14.01 11.74,-27.36 17.04,-40.05 5.3,-12.69 9.85,-23.86 13.63,-33.52 3.79,-9.66 6.25,-16.37 7.39,-20.16l32.94 14.77 32.38 13.06z"/>
  <path class="fil8" d="M20812.37 7767.28c-6.44,17.42 -14.11,30.39 -23.01,38.91 -8.9,8.52 -19.4,13.16 -31.52,13.92 4.93,7.57 9.94,15.62 15.05,24.14 5.11,8.52 10.03,17.14 14.77,25.85 4.73,8.71 9.28,17.32 13.63,25.84 4.36,8.52 8.24,16.38 11.64,23.57l-60.78 38.62c-3.41,-9.47 -7.57,-19.59 -12.5,-30.39 -4.92,-10.79 -10.22,-21.58 -15.9,-32.38 -5.68,-10.79 -11.64,-21.49 -17.89,-32.09 -6.25,-10.61 -12.21,-20.26 -17.89,-28.97l39.19 -23.85c-6.44,-4.93 -12.69,-12.4 -18.75,-22.44 -6.05,-10.03 -11.17,-23.57 -15.33,-40.61 -0.76,-3.03 -1.42,-7.29 -1.99,-12.78 -0.57,-5.49 -1.23,-11.45 -1.99,-17.89l-22.15 43.17c-8.71,-5.68 -18.17,-11.64 -28.4,-17.89 -10.22,-6.25 -20.64,-12.59 -31.24,-19.03 -8.71,17.8 -19.7,34.56 -32.95,50.27 -13.25,15.72 -29.72,32.09 -49.42,49.13l2.27 -0.57c2.27,7.95 4.64,17.14 7.1,27.55 2.46,10.41 4.74,21.01 6.82,31.81 2.08,10.79 3.97,21.2 5.68,31.24 1.71,10.03 3.13,18.84 4.26,26.41l-65.89 14.77c-1.51,-19.69 -4.26,-40.33 -8.24,-61.92 -3.97,-21.58 -8.42,-40.89 -13.35,-57.94l55.67 -10.22 -50.55 -48.85c20.82,-14.77 37.77,-28.59 50.84,-41.47 13.07,-12.88 23.38,-27.27 30.96,-43.17 -7.95,-4.54 -15.53,-8.8 -22.72,-12.78 -7.2,-3.97 -14.01,-7.47 -20.45,-10.5l2.27 -4.55c-4.93,1.14 -11.27,2.75 -19.03,4.83 -7.76,2.08 -16.37,4.45 -25.84,7.1l0 68.73c0,12.87 -1.04,23.76 -3.13,32.66 -2.08,8.9 -5.49,16.38 -10.22,22.44 -4.74,6.06 -11.17,10.6 -19.31,13.63 -8.14,3.03 -18.08,5.11 -29.82,6.25l-5.68 0.57 43.74 14.2c-6.44,21.59 -14.86,43.83 -25.27,66.74 -10.42,22.91 -20.54,43.65 -30.39,62.2l-64.19 -30.11c11.74,-17.8 22.06,-36.26 30.96,-55.38 8.9,-19.12 16.19,-37.77 21.87,-55.95l-16.47 1.7 -19.31 -65.89 42.6 -4.55c8.71,-0.76 14.3,-2.65 16.76,-5.68 2.46,-3.02 3.69,-9.08 3.69,-18.17l0 -35.79c-17.04,4.93 -32.94,9.56 -47.71,13.92 -14.77,4.36 -26.13,7.86 -34.08,10.51l-5.68 -69.87c7.57,-1.89 19.4,-4.83 35.5,-8.8 16.09,-3.97 33.42,-8.42 51.97,-13.35l0 -42.6 -65.89 0 0 -65.32 65.89 0 0 -63.05 64.19 2.84 0 60.21 50.55 0 0 65.32 -50.55 0 0 26.13c8.33,-2.27 15.9,-4.26 22.72,-5.96 6.82,-1.71 12.5,-3.32 17.04,-4.83l1.71 27.26 3.97 36.92 26.13 -51.69c4.93,2.27 9.94,4.63 15.05,7.1 5.11,2.46 10.51,5.02 16.19,7.67 0.76,-6.82 1.32,-13.92 1.71,-21.3 0.38,-7.38 0.76,-15.43 1.13,-24.14l-40.9 0 0 -66.46 41.47 0 0 -57.94 62.48 2.84 0 55.1 113.61 0 0 99.97c0,21.59 0.19,40.81 0.57,57.66 0.38,16.85 0.95,30.77 1.7,41.75 0.38,9.47 1.8,16.76 4.26,21.87 2.46,5.11 4.64,7.67 6.53,7.67 3.03,0 5.3,-1.13 6.82,-3.41 1.51,-2.27 3.22,-7.19 5.11,-14.77 1.89,-6.82 3.22,-12.21 3.97,-16.19 0.76,-3.98 1.7,-8.81 2.84,-14.48l46.57 22.72c-1.51,10.22 -3.22,19.03 -5.11,26.41 -1.9,7.38 -4.55,16 -7.95,25.84zm-185.17 -111.9c10.98,5.68 21.49,11.27 31.52,16.76 10.03,5.49 19.41,10.7 28.12,15.62 -0.76,-12.12 -1.23,-24.52 -1.42,-37.2 -0.19,-12.69 -0.29,-24.52 -0.29,-35.5l0 -36.35 -51.69 0c-0.38,14.39 -1.04,27.93 -1.99,40.61 -0.95,12.69 -2.37,24.71 -4.26,36.07zm13.06 155.64c3.41,7.95 7.1,16.95 11.08,26.98 3.97,10.03 7.86,20.26 11.64,30.67 3.79,10.41 7.29,20.54 10.51,30.39 3.22,9.85 5.77,18.75 7.67,26.7l-63.62 21.02c-1.9,-9.09 -4.26,-18.75 -7.1,-28.97 -2.84,-10.22 -5.87,-20.45 -9.09,-30.67 -3.22,-10.22 -6.63,-20.17 -10.22,-29.82 -3.6,-9.66 -7.29,-18.46 -11.08,-26.41l60.21 -19.88zm349.56 -156.21l-64.19 0 0 -86.34 91.45 0c-1.89,-7.58 -3.79,-15.34 -5.68,-23.29 -1.9,-7.95 -3.79,-15.34 -5.68,-22.15l-57.37 1.71 -3.41 -55.1c30.67,-0.38 64.28,-1.23 100.82,-2.55 36.54,-1.32 73.18,-2.84 109.91,-4.54 36.73,-1.71 72.33,-3.79 106.79,-6.25 34.46,-2.46 65.13,-5.21 92.02,-8.24l7.95 57.37 -35.22 3.41c-3.03,8.71 -6.34,18.27 -9.94,28.68 -3.6,10.42 -7.29,20.73 -11.07,30.96l77.25 0 0 86.34 -65.32 0 0 -32.38 -328.32 0 0 32.38zm252.2 -86.34c3.41,-8.71 6.72,-17.89 9.94,-27.55 3.22,-9.66 6.34,-18.84 9.37,-27.55l-68.16 3.41c1.89,8.71 3.5,17.32 4.83,25.85 1.32,8.52 2.55,17.14 3.69,25.85l40.33 0zm-173.81 -47.15c2.27,7.57 4.45,15.43 6.53,23.57 2.08,8.14 4.07,16 5.96,23.57l56.24 0c-1.13,-8.33 -2.37,-16.67 -3.69,-24.99 -1.32,-8.33 -2.74,-16.28 -4.26,-23.86l-60.78 1.71zm316.39 441.35c-43.55,-7.95 -81.7,-16.66 -114.45,-26.13 -32.76,-9.47 -62.2,-19.88 -88.33,-31.24 -28.02,12.5 -58.5,23.95 -91.45,34.36 -32.94,10.41 -69.11,19.79 -108.49,28.12l-24.99 -63.05 -25.56 21.58 -41.47 -47.71c32.19,-25.37 59.74,-51.02 82.65,-76.96 22.91,-25.94 41.75,-53.68 56.52,-83.22l-86.34 0 0 -52.83 107.36 0c1.89,-5.3 3.5,-10.6 4.83,-15.9 1.32,-5.3 2.74,-10.6 4.26,-15.9l65.32 5.68c-0.76,4.54 -1.7,8.99 -2.84,13.35 -1.13,4.35 -2.27,8.61 -3.41,12.78l251.07 0 0 52.83 -268.67 0c-1.9,4.16 -3.79,8.33 -5.68,12.5 -1.9,4.16 -3.79,8.33 -5.68,12.5l255.04 0 0 49.99c-12.87,13.63 -26.79,26.7 -41.75,39.19 -14.96,12.5 -31.53,24.24 -49.7,35.22 40.9,11.74 92.59,22.15 155.07,31.24l-23.29 63.62zm-204.49 -122.13c14.77,-6.82 28.12,-13.92 40.05,-21.3 11.93,-7.38 22.63,-14.86 32.09,-22.43l-137.46 0c9.09,8.33 18.93,16.09 29.54,23.29 10.61,7.19 22.54,14.01 35.79,20.45zm-222.1 63.62c29.91,-4.92 57.65,-10.41 83.22,-16.47 25.56,-6.06 49.32,-12.69 71.28,-19.88 -12.11,-8.71 -23.48,-17.8 -34.08,-27.27 -10.61,-9.47 -20.64,-19.69 -30.11,-30.67 -12.12,15.9 -25.65,31.52 -40.61,46.86 -14.96,15.34 -31.52,31.15 -49.7,47.43z"/>
 </g>
</svg>
